<?xml version="1.0" encoding="UTF-8"?><svg id="Layer_1" xmlns="http://www.w3.org/2000/svg" viewBox="0 0 535 251.15"><defs><style>.cls-1,.cls-2{stroke-width:0px;}.cls-2{fill:none;}</style></defs><path class="cls-2" d="m535,251.15H0V0h535v251.15ZM387.55,60.13c.33-.56.82-1.09.96-1.7,1.61-6.58,3.17-13.18,4.74-19.77-.08-1.73.76-2.23,2.44-2.23,2.32,0,4.65-.34,6.97-.54-.01-.11-.02-.23-.02-.34-3.13.2-6.26.41-9.6.63.08.92.15,1.71.22,2.49-.38.69-.95,1.35-1.11,2.09-.67,3.03-1.12,6.12-1.83,9.14-.81,3.45-1.8,6.85-2.71,10.28-.05.99-.55,2.36-.08,2.9,1.91,2.21,4.11,4.17,6.21,6.22.13-.15.26-.3.4-.44-2.38-2.78-6.53-4.21-6.59-8.73Zm-229.25,42.65c5.13.86,10.28,1.42,15.47.88-.86-.22-1.74-.19-2.61-.22-4.3-.19-8.59-.4-12.89-.61-.71-.29-1.39-.75-2.13-.84-3.83-.48-6.1-2.67-7.21-6.26-.3-.99-.82-1.91-1.14-2.89-2.5-7.59-6.14-14.89-5.68-23.68-1.63,3.67-.75,6.89.19,9.91,1.83,5.85,4.26,11.51,6.04,17.38,1.37,4.52,3.99,5.94,9.96,6.33Zm263.89-48.85c-.25-.13-.48-.33-.75-.39-6.34-1.47-12.69-2.96-19.05-4.32-.44-.09-1.4.68-1.58,1.23-.89,2.67-1.64,5.4-2.36,8.12-.3,1.14-.41,2.34-.6,3.51,1.34-3.49,2.35-7.03,3.24-10.6.32-1.3.99-1.76,2.23-1.5,3.12.68,6.22,1.42,9.35,2.06,3.18.66,6.38,1.23,9.57,1.84.56.74,1.59,1.46,1.62,2.22.26,6.75.17,13.52.57,20.27.19,3.22-.58,5.04-3.5,6.86-6.9,4.29-13.41,9.2-20.07,13.86-.8.17-1.77.71-2.36.44-3.36-1.55-6.63-3.3-10.48-5.26,4.04,3.49,8.35,5.13,13.15,6.84-.16-1.05-.24-1.53-.31-2.02.9-.33,1.91-.49,2.68-1.01,2.96-1.96,5.82-4.07,8.76-6.07,3.79-2.59,7.56-5.23,11.46-7.64,1.22-.75,1.49-1.42,1.44-2.76-.27-7.71-.46-15.42-.59-23.14-.04-1.73-.52-2.73-2.42-2.54Zm-90.09,46.62c-2.29-1.23-4.58-2.47-6.87-3.7-.12.27-.25.55-.37.82,2.43.95,4.85,1.89,7.28,2.84,1.78,1.8,4.05,2.02,4.92.16,1.56-3.32,3.43-6.76,3.84-10.31.94-8.11,1.07-16.32,1.56-24.49.24-4.08.46-8.17.84-12.24.33-3.46.91-6.9,1.33-10.35.69-5.59,1.23-11.21,2.06-16.78.54-3.68-.79-5.12-4.63-4.5,1.02.35,2.15.56,3.07,1.12.57.35,1.2,1.25,1.16,1.86-.16,2.51-.54,5-.89,7.5-.98,6.98-2.35,13.92-2.89,20.93-.78,10.06-.95,20.16-1.43,30.24-.26,5.45-1.03,10.77-3.92,15.59-1.02,1.7-2.1,2.4-3.97,1.47-.32-.15-.73-.11-1.09-.16Zm-54.65-68.99c.77-2.63,1.62-5.24,2.28-7.9.69-2.77-.24-3.91-3.17-4.15-.46-.3-.89-.75-1.39-.89-5.34-1.43-10.7-2.81-16.18-4.24-.54,1.83-1.14,3.95-1.79,6.04-1.72,5.52-3.47,11.02-5.17,16.55-.17.55-.12,1.19-.07,1.78.42,4.88.96,9.75,1.3,14.63.57,8.17,1.07,16.35,1.5,24.53.2,3.94.34,7.76,2.98,11.13,1.67,2.13,2.91,4.65,4.05,7.13.83,1.81,2.01,1.93,3.61,1.56,5.35-1.24,10.7-2.47,16.04-3.72,4.49-1.05,8.97-2.13,13.47-3.16,1.23-.28,1.98-.61,1.68-2.22-1.61-8.66-3.11-17.34-4.68-26.2-5.35,1.9-10.82,3.83-16.45,5.82-.58-3.54-1.14-6.59-1.56-9.66-.31-2.34-.82-4.76-.55-7.06.4-3.44,1.43-6.81,2.15-10.21.67-3.25,1.3-6.51,1.95-9.76Zm184.03,40.42c-.25-.11-.51-.22-.76-.34.38-.47.55-1.06,1.18-1.39,1.72-.91,3.41-1.97,5.51-2.5,5.62-1.42,9.51-3.73,12.64-6.52,2.75-2.45,5.51-4.89,7.99-7.42.56-.57.52-1.67-.15-2.19-4.53-3.57-9.28-7.06-14.02-10.54-.91-.67-1.96-.8-3.65-.33-6.91,1.9-13.98,3.62-20.98,5.43-1.95.5-3.61,1.13-3.07,2.58.24.64.4,1.34.18,1.97-.82,2.29.72,3.56,4.79,4.37,2.5.49,3.89.45,4.94-.86.79-.98,1.55-1.97,2.31-2.96.95-1.24,2.03-1.96,4.93-1.24,3.33.82,6.94,1.3,10.88,2.01-1.75,2.44-3.11,4.68-4.99,6.8-.8.9-2.65,1.53-4.08,2.26-5.99,3.06-12,6.1-18,9.15-.72.37-1.34.86-2.2,1.07-3.47.84-3.39,1.97-1.5,3.54,3.31,2.74,6.46,5.55,9.5,8.38,1.43,1.33,2.66,2.76,3.58,4.21.81,1.29,2.26,1.74,4.47,1.45,6.91-.9,13.8-1.84,20.68-2.8,2.17-.3,3.19-1,2.91-2.36-.38-1.84-.54-3.71-.43-5.56.12-1.97-2.73-2.58-4.89-3.49-.36-.15-1.61.15-2.26.39-2.35.87-4.59,1.82-6.92,2.69-1.76.66-3.11.65-4.1-.63-.91-1.18-2.26-2.26-2.95-3.56.87.69,1.95,1.32,2.57,2.07,1.38,1.66,3.17,1.74,5.61.59-5.93.43-5.33-2.71-7.89-3.89,1.28-.89,2.31-1.6,3.35-2.32,3.34.18,9.38-1.86,10.98-3.5-3.32,1.06-7.15,2.28-10.98,3.5-1.71.63-3.45,1.28-5.18,1.94Zm-38.24,61.6l.06.02c-8.01-.7-16-1.58-24.02-2.05-5.46-.32-10.95,0-16.42-.07-6.78-.08-13.56-.33-20.34-.4-7.36-.07-14.72,0-22.08-.02-8.12,0-16.23-.09-24.35,0-1.63.02-2.37-.62-3.45-1.75-3.2-3.36-6.28-7.29-10.25-9.39-7.39-3.89-15.4-6.58-23.11-9.88-4.8-2.06-9.68-2.08-14.36-.22-7.8,3.09-15.53,6.38-23.1,10.01-3.56,1.71-6.85,4.15-9.9,6.69-2.54,2.12-4.46,4.97-6.83,7.33-.9.9-2.27,1.86-3.44,1.87-5.58.09-11.18-.46-16.74-.17-6.31.33-12.58.81-18.84-.45-.94-.19-1.93-.17-2.9-.16-4.39.04-8.79.14-13.18.15-9.31,0-18.62-.1-27.93-.04-10.96.07-21.93.26-32.89.38-1.79.02-3.58.02-5.37-.09-6.76-.38-13.56-1.42-20.28-1.07-10.77.56-21.21.02-31.49-3.6-8.38-2.95-16.68-5.92-23.59-11.7-1.78-1.49-3.31-3.32-4.83-5.1-1.24-1.46-2.3-3.08-3.43-4.64-.16.12-.32.25-.48.37.87,1.35,1.67,2.74,2.63,4.03.91,1.23.98,1.94-.65,2.64-4,1.72-7.72,3.89-10.1,7.76-.76,1.23-1.51.81-1.98-.15-.58-1.19-1.18-2.45-1.36-3.74-.39-2.9-.51-5.84-.72-8.43-2.7,15.5,8.55,23.81,17.55,25.39-.07-.85-.3-1.76-.17-2.61.59-4.02,5.99-9.16,10-9.54.48-.05,1.02.16,1.49.35,4.26,1.74,8.5,3.49,12.75,5.26.49.21.94.53,1.46.82-7.83,7.66-8.6,8.84-9.52,14.52,6.35,4.26,13.97,2.97,21.03,4.79-2.52-.57-2.53-2.34-2.02-4.06.54-1.83,1.18-3.74,2.25-5.3,2.8-4.08,6.22-7.19,11.82-6.2,1.51.27,3.12-.1,4.69-.12,2.34-.03,4.68,0,6.94,0,.08.4.13.5.1.53-.48.56-.94,1.14-1.47,1.65-3.07,2.99-4.39,6.64-4.15,10.9.18,3.24-3.16,4.27-3.16,4.27h23.84s-.25-4.07.05-5.9c.68-4.19,3.47-7.15,6.45-9.9.28-.26.83-.31,1.25-.32,5.44-.1,10.87-.18,16.31-.23.62,0,1.25.16,2.38.31-4.78,5.29-4.71,18.04-4.71,18.04h22.17s-1.67-11.44,1.5-16.62c.5-.81,1.75-1.63,2.67-1.65,3.94-.08,7.89.13,11.83.27.48.02.95.22,1.71.4-2.21,5.47-2.92,10.89-.75,16.4,1.68,0,3.43.25,5.07-.04,9.62-1.73,19.28-.94,28.9-.34,6.77.42,13.49,1.76,20.22,2.76,3.33.49,3.32.56,3.26,3.9,0,.75-.04,1.49-.06,2.24-.15,5.78.81,11.37,2.66,16.86,1.28,3.79,2.02,7.76,3.19,11.59,1.31,4.31,2.53,8.68,4.36,12.77,1.22,2.73,3.33,5.1,5.24,7.47,3.22,3.99,6.38,8.06,9.95,11.73,4.8,4.94,9.95,9.55,14.98,14.28,4.29,4.03,10.45,6.98,16.97,2.97,4.14-2.54,7.82-5.14,10.6-9.23,2.02-2.98,5.13-5.21,7.23-8.15,4.26-5.96,8.21-12.15,12.18-18.31,2.53-3.92,5.15-7.83,7.2-12,2.48-5.05,2.53-10.65,2.65-16.19.18-8.18,1.94-16.29.98-24.52-.03-.29-.09-.69.06-.88.5-.59,1.07-1.53,1.65-1.56,4.55-.26,9.11-.43,13.66-.44,6.32,0,12.63.22,18.95.2,7.2-.02,14.4-.14,21.59-.35,5.05-.15,10.09-.51,15.13-.78-.01-.15-.02.19-.02.19h-3.89s-.74-10.76-3.5-15.16c3.46,0,6.56,0,9.66,0,3.13,0,6.27.04,9.4.1.42,0,1.04.08,1.23.35,1.61,2.35,3.67,4.57,4.55,7.18.89,2.64.57,5.67-1.91,8.46,6.73,0,12.97.15,19.2-.04,5.87-.18,11.73-1,17.6-1.05,8.21-.07,16.43.32,23.87.49,2.36-5.56.38-10.29-3.18-14.67,6.24,0,12.04,0,17.84.02.41,0,.86.24,1.21.49,3.06,2.2,4.98,7.87,4.04,11.46-.36,1.37-1.07,2.04-2.47,2.09-.74.02-1.48.13-2.21.24-.72.11-1.43.27-2.14.4.04.21.09.42.14.63,8.07-1.49,16.14-2.97,24.2-4.46-.24-1.07-.5-1.6-.45-2.1.31-3.45-1.19-6.26-3.26-8.76-.94-1.14-1.7-1.92.2-2.61-6.38.77-12.58,1.9-18.77,1.85-15.29-.13-30.56-.05-45.82.9-3.56.29-7.14.33-10.71.45ZM71.84,88.24c0,4.44-.01,8.24,0,12.04.01,4.2.16,5.62,5.9,6.05,4.98.38,9.97.53,14.95.78,7.5.38,15,.85,22.51,1.03,1.22.03,3.04-.97,3.62-2.02,1.95-3.57,3.6-7.33,5.12-11.11,1.83-4.55,3.37-9.21,5.14-13.78,1-2.6.97-2.86-1.83-3.62-3.86-1.05-7.77-1.93-11.59-3.09-2.43-.73-4.29-.37-5.92,1.66-1.06,1.33-2.36,2.48-3.59,3.66-1.03.98-.96,1.69.27,2.44,1.9,1.16,3.69,2.49,5.62,3.58,1.53.87,2.17,1.9,1.55,3.63-.57,1.61-.94,3.31-1.63,4.86-.26.58-1.19,1.21-1.82,1.21-3.72-.01-7.46-.03-11.16-.36-5.71-.5-5.69-.61-6.8-6.24-1.51-7.65-3.01-15.31-4.58-22.96-.27-1.31-.19-2.31,1.05-3.04,6.03-3.51,12.01-7.1,18.1-10.52,1.49-.83,2.77.22,3.51,1.54,1.04,1.88,1.93,3.84,2.86,5.78.93,1.95,2.03,3.36,4.61,2.81,2.1-.44,4.29-.41,6.44-.62,2.57-.25,3.61-1.76,3.18-4.27-.49-2.85-.72-5.75-1.32-8.58-.21-.98-1-2.39-1.8-2.61-6.77-1.93-13.6-3.69-20.44-5.38-1.77-.43-3.49-.46-5.23.88-7.25,5.56-14.6,10.98-22,16.34-4,2.9-6.58,6.32-6.08,11.59.58,6.31.94,12.63,1.36,18.32Zm349.36-26.67c.12,0,.24,0,.35,0,0-1.12-.19-2.28.04-3.35.46-2.07-.56-2.76-2.32-3.17-3.83-.9-7.62-1.96-11.45-2.84-3.9-.89-3.93-.83-5.32,3-.3.82-.38,1.71-.58,2.57-.51,2.14.29,3.4,2.39,4.14,2.23.79,4.34,1.93,6.55,2.8,1.1.43,1.53.93,1.18,2.16-.99,3.5-1.83,7.04-2.83,10.54-.56,1.95-4.85,3.43-6.34,2.12-5.56-4.84-11.13-9.68-16.44-14.78-1.15-1.1-1.87-3.37-1.71-4.99.84-8.38,3.14-16.46,5.93-24.38.24-.67,1.26-1.41,2-1.5,2.8-.33,5.66-.25,8.45-.63,2.66-.36,4.31.41,5.45,2.93.94,2.08,1.99,4.67,3.75,5.66,1.85,1.04,4.63.33,6.98.6,1.68.19,2.11-.63,2.17-1.99.12-2.86.04-5.59-2.14-7.92-1.24-1.33-1.95-3.15-3.02-4.66-.47-.67-1.18-1.45-1.91-1.61-4.97-1.14-10.06-1.85-14.95-3.27-4.53-1.32-8.58-1.02-12.55,1.47-1.57.98-3.24,1.82-4.92,2.62-1.66.79-2.77,1.98-3.07,3.8-.56,3.45-1.11,6.9-1.59,10.36-.86,6.19-1.76,12.37-2.42,18.58-.18,1.7-.05,3.73.73,5.19,1.91,3.6,4.26,6.96,6.45,10.4,1.03,1.63,2.12,3.22,3.17,4.83,3.25,5,5.49,10.9,11.34,13.66,1.67.79,4.25,1.82,5.43,1.11,6.96-4.23,13.6-9,20.44-13.45,1.35-.88,1.75-1.83,1.66-3.28-.32-5.58-.61-11.15-.9-16.71Zm-123.1-40.96c.39,1.54.64,2.99,1.12,4.37,2.02,5.79,4.06,11.59,6.21,17.34,1.42,3.8,3.05,7.53,4.58,11.29.71,1.75,1.81,1.85,3.56,1.31,4.29-1.32,8.67-2.34,13.57-3.63-.33,9.66-.66,19.07-1,29.08-6.32-2.17-11.13-6.66-17.11-8.88-1.11,2.49-2.18,5.01-3.37,7.47-.73,1.52-.33,2.46,1.04,3.31,8.58,5.31,17.11,10.7,25.72,15.97,2.13,1.3,3.33.56,4.03-2.16,2.15-8.39,2.81-16.92,2.68-25.58-.07-4.96.11-9.97.77-14.88,1.35-10.14,3.1-20.22,4.75-30.7-3.78-.89-7.56-1.79-11.45-2.71-.17.34-.46.7-.56,1.1-1.23,5.26-2.41,10.53-3.66,15.78-.14.57-.57,1.36-1.03,1.5-2.19.64-4.48,1.58-6.66,1.42-1.11-.08-2.06-2.27-3.08-3.51-.05-.06-.1-.11-.14-.18-4.56-6.66-10.14-12.64-13.51-20.33-2.18.88-4.28,1.73-6.46,2.62Zm-72.09,54.05s0-.05,0-.07h-5.58c-1.74,0-2.37-1.23-2.47-2.61-.15-2.11-.12-4.24,0-6.35.2-3.49.68-6.97.73-10.46.03-1.87-.15-3.98-.97-5.6-3.67-7.19-7.69-14.21-11.42-21.37-.92-1.77-1.98-2.41-3.84-1.92-2.51.66-5.03,1.3-7.54,1.98-2.09.57-3,2.31-2.09,4.22,2.57,5.4,5.19,10.78,7.83,16.14.95,1.92,1.89,3.87,3.08,5.65,2.08,3.13,2.45,6.49,2.38,10.17-.17,8.84-.02,17.68.06,26.53,0,1.51.76,2.37,2.51,2.45,10.26.5,20.51,1.11,30.76,1.68,1.81.1,2.56-.7,2.4-2.51-.12-1.41-.29-2.83-.2-4.23.22-3.41.55-6.81.87-10.22.17-1.86-.5-2.67-2.5-2.73-4.66-.13-9.33-.48-14-.75Zm-47.08-14.14c-.51,1.08-.85,1.89-1.26,2.66-2.25,4.19-4.63,8.31-6.76,12.55-2.48,4.92-2.39,4.96-7.77,4.67-.15-.01-.3-.01-.45-.02-6.98-.27-9.83-8.14-8.5-12.74.64-2.21,1.26-4.42,1.76-6.66.4-1.81,1.37-4.05.68-5.37-.62-1.2-3.14-1.42-4.82-2.07-.48-.18-.95-.43-1.45-.51-1.54-.24-2.65-.12-2.98,1.93-.7,4.4-1.72,8.74-2.56,13.12-.37,1.94-1.33,4.13-.8,5.82,2.41,7.61,5.16,15.12,8.06,22.56.43,1.1,2.2,2.18,3.48,2.37,5.51.82,11.07,1.48,16.63,1.78,1.58.08,4.14-.85,4.73-2.05,4.91-10.07,9.47-20.31,14.11-30.51,1.07-2.36.84-2.87-1.61-3.9-2.53-1.06-5.05-2.13-7.61-3.1-.86-.33-1.86-.35-2.88-.53Zm320.16,7.92c1.23,1.78,2.32,3.15,3.18,4.65,2.46,4.33,5.08,8.6,7.15,13.11,2.1,4.57,4.13,9.28,5.28,14.15,2.07,8.8-3.8,14.98-8.27,21.47-1.59,2.31-3.6,4.33-5.42,6.49,1.16-.43,2.23-.94,2.87-1.78.91-1.19,1.87-1.28,2.85-.47,2.73,2.26,5.42,4.56,8,6.99.51.48.41,1.59.58,2.37.73-.51,1.64-1.16,2.55-1.79,4.03-2.76,7.44-5.77,7.3-11.37-.19-7.31-.21-14.59-3.19-21.47-2.87-6.61-5.57-13.34-10.03-19.06-3.27-4.2-6.96-8.09-10.52-12.05-.51-.55-1.4-.76-2.33-1.24ZM20.01,107.14c-.73-4.74-1.31-9.52-2.24-14.22-1.34-6.75-.35-12.86,3.44-18.75,1.89-2.94,2.67-6.59,3.95-9.91-.17-.09-.33-.19-.5-.28-.52.58-1.14,1.11-1.55,1.76-.92,1.43-1.65,2.99-2.61,4.38-3.23,4.68-6.6,9.27-9.76,13.99-1.14,1.71-2.12,3.62-2.72,5.57-1.94,6.38-1.66,12.85-.34,19.34,3.19-3.72,9.98-5.66,12.33-1.88ZM426.7,15.66c1.55,4.42,2.98,8.79,4.66,13.05.28.71,1.59,1.22,2.51,1.39.41.07,1.21-.87,1.48-1.5.77-1.77,1.43-3.59,2-5.43.91-2.92,1.72-5.88,2.66-9.11-4.65.56-8.9,1.07-13.31,1.6Zm-181.6,57.86c-1.97-.31-4.35-.91-6.75-1.01-5.05-.22-10.12-.13-15.17-.33-.74-.03-1.93-.85-2.07-1.49-.29-1.34-.36-2.92.09-4.19,1.36-3.86.24-7.69.07-11.5-.1-2.26-.38-4.72-1.39-6.68-4.12-8.03-8.55-15.9-12.9-23.81-.16-.29-.67-.4-1.02-.59,2.87,5.83,6.08,11.36,9.18,16.95,1.61,2.91,3.53,5.79,4.41,8.94,1.43,5.14,2.15,10.47.82,15.86-.41,1.64-.52,3.38-.56,5.08,0,.5.55,1.26,1.04,1.47.86.37,1.86.52,2.81.57,6.23.33,12.46.67,18.69.88,1.84.06,2.15.73,2.09,2.47-.17,5.33-.16,10.67-.08,16,.04,2.9-1.05,4.25-4.04,4.36-1.78.06-3.56.01-5.34.01,2.28.47,4.59.85,6.83.59,1.06-.13,2.48-1.32,2.83-2.34.56-1.62.43-3.5.45-5.28.04-5.15,0-10.27,0-15.96Zm-55.33-43.72c-.22.07-.44.14-.67.21.14.62.2,1.28.45,1.85,3.46,7.85,6.83,15.74,10.48,23.5,1.78,3.78,3,7.53,2.7,11.76-.48,6.76-.92,13.52-1.1,20.29-.08,3.05.51,6.12.77,8.96h20.03c-5.66-.39-11.31-.35-16.96-.44-.79-.01-2.16-.59-2.24-1.08-.49-2.92-.99-5.9-.91-8.84.15-5.43.64-10.85,1.1-16.26.41-4.83.11-9.44-2.27-13.85-2.39-4.42-4.65-8.93-6.66-13.54-1.79-4.1-3.16-8.37-4.72-12.56Zm105.96-10.9c-.17-.07-.34-.15-.51-.22,0,.94-.21,1.94.04,2.82,1.15,4.13,2.28,8.27,3.7,12.31,2.59,7.38,5.3,14.71,8.11,22,.82,2.13,2.37,3.23,4.93,2.3,2.15-.78,4.46-1.11,6.66-1.79,1.69-.52,3.3-1.29,4.95-1.94-3.67.87-7.25,1.88-10.83,2.87-3.2.89-4.32.44-5.46-2.67-2.98-8.1-5.95-16.21-8.71-24.39-1.24-3.68-1.94-7.53-2.88-11.29Zm73.97,44.3c-.09-11.91,3.9-23.59,5.43-36.27-.56,1.31-1.09,2.13-1.25,3.01-1.5,8.45-2.89,16.92-4.43,25.36-.54,2.89-.6,5.67.25,7.9Zm-45.91,14.61c.42-8.25.81-16.16,1.21-24.07-.23,0-.45-.03-.68-.04-.45,7.55-.9,15.1-1.36,22.85-1.16-.42-1.93-.7-2.71-.98-.05.11-.09.22-.14.32,1.15.6,2.31,1.2,3.68,1.92Zm-11.84,10.89c.1-.15.21-.3.31-.45-2.37-1.7-4.69-3.47-7.12-5.08-2.42-1.61-2.02-3.65-1.06-5.77,1.44-3.18,2.99-6.31,4.5-9.46-3.29,3.88-5.03,8.54-6.87,13.6,3.34,2.34,6.79,4.75,10.24,7.16Zm17.6-62.06c-.17-.03-.34-.05-.52-.08-.89,3.35-1.88,6.67-2.63,10.05-.37,1.67-1.22,2.46-2.83,2.55-1.64.09-3.15.21-4.14-1.74-1.06-2.08-2.62-3.9-3.96-5.83-.15.11-.29.21-.44.32,1.21,1.83,2.4,3.68,3.65,5.48,1.48,2.13,4.55,3.08,6.86,2.07.48-.21,1.02-.75,1.14-1.24,1.01-3.85,1.92-7.72,2.87-11.58Zm-206.4,17.24c-.07.16-.13.32-.2.48.9.33,1.78.81,2.71.94,1.61.23,2.13.91,2.29,2.61.42,4.47,1.18,8.91,1.81,13.36.26-.38.38-.75.34-1.11-.45-4.58-.91-9.15-1.43-13.72-.04-.35-.42-.84-.75-.96-1.57-.59-3.17-1.07-4.77-1.6Zm285.89,22.49c-1.11,3.07-2.18,6.05-3.25,9.03-.44,1.21-1.21,1.11-2.09.51-1.06-.72-2.12-1.45-3.18-2.18-.1.16-.2.31-.3.47,1.88,1.24,3.75,2.48,5.64,3.73,1.5-4.3,2.84-8.14,4.24-12.18-1.28-.26-2.27-.46-3.26-.66-.02.1-.05.21-.07.31.66.28,1.31.56,2.27.97Zm79.41,11.18c.03-.29.16-.7-.12-.86-2.73-1.54-5.54-3.04-8.33-4.55-.25.14-.51.29-.76.43,2.04,1.06,4.01,2.16,6.15,3.16,1.76.82,2.34,1.72,2.02,2.98-.47,1.89-.62,3.8-.8,5.7-.06.63.21,1.27.33,1.9.2-.01.4-.01.6-.02.31-2.91.62-5.82.91-8.74Zm-79.74-33.27c.03.24.05.48.08.73,3.41,0,6.82.12,10.21-.08.91-.06,2.44-1.03,2.52-1.72.31-2.49.12-5.03.12-7.56-.36,1.63-.33,3.24-.36,4.85-.05,2.79-.97,3.74-3.74,3.78-2.94.03-5.88,0-8.83,0Zm-252.96,25.22c-.28,3.05,1.23,5.66,2.79,7.93,1.66,2.43,4.82,1.43,7.38,1.54-.77-.32-1.58-.28-2.39-.33-2.08-.12-4.06-.61-5.05-2.65-1.02-2.11-1.83-4.33-2.73-6.49Zm156.86-40.48c.2-.11.39-.22.59-.33.01-.14.09-.32.03-.41-2.43-4.15-4.98-8.25-5.89-13.09-.05-.25-.66-.4-1.02-.6-.14.14-.29.28-.43.42,2.24,4.66,4.48,9.34,6.72,14.01ZM103.54,93.54c.01-.08.01-.17.02-.25-1.62,0-3.25.03-4.87-.01-2.07-.04-3.27-1.02-3.57-3.17-.34-2.38-.87-4.73-1.32-7.09.02,3.05.4,6.04,1.04,8.97.13.62,1.17,1.41,1.84,1.47,2.28.2,4.57.08,6.86.08Zm74.16-35.78c4.62.29,7.66,5.36,12.66,4.31-4.79.24-7.84-4.79-12.66-4.31Zm-76.74,24.07c.36,2.62,3.79,4.65,11.24,6.73-3.89-2.53-8.41-2.95-11.24-6.73Zm356.7-24.35c-4.65-.95-9.29-1.89-13.94-2.83,1.83,1.39,12.52,3.3,13.94,2.83Zm-65.89,89.16c-.01.21-.02.41-.03.62,3.66.17,7.33.34,10.99.5.01-.2.02-.41.02-.61-3.66-.17-7.32-.34-10.98-.51Zm37.73-114.92c2.93,1.69,5.6,1.2,8.21,1.03.24-.02.43-.94.61-1.36-2.86,1.4-5.57.49-8.82.33Zm25.04,58.35c.66,1.12,1.18,1.3,3.98.99,4.15-.47,8.28-.99,13.38-1.6-6.46-.44-11.81,2.01-17.36.61ZM154.01,52.49c3.47.8,6.05,2.17,4.42,6.48,1.78-5.21,1.21-6.05-4.42-6.48Zm327.43-9.34c-2.31-2.95-6.76-5.01-10.17-4.37,5.49.28,6.64,3.06,10.17,4.37Zm-10.43,9.44c-2.94-.68-5.76-1.31-8.88-1.25,2.71.76,6.25.5,7.94,2.53.31-.42.58-.8.94-1.28Zm-137.69-33.44c-.78.03-2.09-.17-2.23.14-.63,1.43-.93,3-1.44,4.86,1.88-1.42.16-4.94,3.67-5ZM74.35,108.78c-1.95-1.8-3.64-3.35-5.34-4.91.57,2.79,2.74,3.8,5.34,4.91Z"/><path class="cls-1" d="m423.24,133.58c3.57-.12,7.14-.16,10.7-.38,15.26-.95,30.53-1.02,45.82-.9,6.19.05,12.39-1.07,18.77-1.85-1.9.68-1.14,1.47-.2,2.61,2.07,2.51,3.57,5.31,3.26,8.76-.05.5.21,1.03.45,2.1-8.05,1.48-16.13,2.97-24.2,4.46-.05-.21-.09-.42-.14-.63.71-.14,1.42-.29,2.14-.4.73-.11,1.47-.22,2.21-.24,1.4-.04,2.11-.71,2.47-2.09.95-3.6-.98-9.26-4.04-11.46-.35-.25-.8-.49-1.21-.49-5.8-.03-11.6-.02-17.84-.02,3.55,4.37,5.54,9.11,3.18,14.67-7.43-.17-15.65-.56-23.87-.49-5.87.05-11.73.87-17.6,1.05-6.23.19-12.47.04-19.2.04,2.48-2.79,2.8-5.82,1.91-8.46-.88-2.61-2.94-4.84-4.55-7.18-.19-.27-.81-.34-1.23-.35-3.13-.06-6.27-.09-9.4-.1-3.1,0-6.21,0-9.66,0,2.76,4.4,3.5,15.16,3.5,15.16h3.89s.01-.34.02-.19c-5.04.27-10.08.63-15.13.78-7.19.21-14.39.32-21.59.35-6.32.02-12.63-.21-18.95-.2-4.56,0-9.11.18-13.66.44-.58.03-1.15.98-1.65,1.56-.15.18-.1.58-.06.88.96,8.22-.81,16.34-.98,24.52-.12,5.53-.17,11.14-2.65,16.19-2.05,4.17-4.67,8.08-7.2,12-3.97,6.16-7.92,12.35-12.18,18.31-2.1,2.94-5.21,5.17-7.23,8.15-2.77,4.09-6.46,6.68-10.6,9.23-6.52,4.01-12.68,1.06-16.97-2.97-5.03-4.72-10.18-9.33-14.98-14.28-3.57-3.67-6.73-7.74-9.95-11.73-1.91-2.37-4.02-4.74-5.24-7.47-1.83-4.09-3.05-8.47-4.36-12.77-1.17-3.83-1.92-7.8-3.19-11.59-1.85-5.49-2.81-11.08-2.66-16.86.02-.75.05-1.49.06-2.24.06-3.34.07-3.41-3.26-3.9-6.73-1-13.45-2.34-20.22-2.76-9.61-.6-19.28-1.39-28.9.34-1.64.3-3.39.04-5.07.04-2.17-5.52-1.46-10.93.75-16.4-.76-.18-1.23-.39-1.71-.4-3.94-.14-7.89-.34-11.83-.27-.92.02-2.17.83-2.67,1.65-3.17,5.18-1.5,16.62-1.5,16.62h-22.17s-.07-12.74,4.71-18.04c-1.12-.15-1.75-.32-2.38-.31-5.44.06-10.87.14-16.31.23-.43,0-.97.06-1.25.32-2.99,2.75-5.77,5.7-6.45,9.9-.3,1.83-.05,5.9-.05,5.9h-23.82s3.34-1.04,3.16-4.27c-.23-4.26,1.08-7.9,4.15-10.9.53-.51.99-1.1,1.47-1.65.03-.03-.02-.13-.1-.53-2.26,0-4.6-.02-6.94,0-1.57.02-3.18.39-4.69.12-5.6-1-9.02,2.11-11.82,6.2-1.07,1.55-1.71,3.46-2.25,5.3-.51,1.72-.5,3.5,2.02,4.06-7.06-1.82-14.68-.53-21.03-4.79.91-5.68,1.69-6.86,9.52-14.52-.52-.3-.96-.62-1.46-.82-4.24-1.77-8.49-3.53-12.75-5.26-.47-.19-1.01-.4-1.49-.35-4,.38-9.41,5.52-10,9.54-.13.85.11,1.76.17,2.61-9-1.58-20.25-9.9-17.55-25.39.21,2.59.33,5.52.72,8.43.17,1.29.78,2.55,1.36,3.74.47.97,1.22,1.38,1.98.15,2.38-3.87,6.1-6.04,10.1-7.76,1.63-.7,1.56-1.41.65-2.64-.95-1.29-1.76-2.68-2.63-4.03.16-.12.32-.25.48-.37,1.14,1.55,2.19,3.18,3.43,4.64,1.52,1.78,3.04,3.6,4.83,5.1,6.92,5.78,15.22,8.75,23.59,11.7,10.28,3.62,20.73,4.16,31.49,3.6,6.72-.35,13.52.69,20.28,1.07,1.79.1,3.58.1,5.37.09,10.96-.12,21.93-.31,32.89-.38,9.31-.06,18.62.05,27.93.04,4.39,0,8.79-.11,13.18-.15.97,0,1.96-.03,2.9.16,6.26,1.26,12.52.78,18.84.45,5.56-.29,11.16.26,16.74.17,1.17-.02,2.53-.98,3.44-1.87,2.36-2.36,4.29-5.2,6.83-7.33,3.05-2.55,6.34-4.99,9.9-6.69,7.56-3.62,15.3-6.92,23.1-10.01,4.69-1.86,9.57-1.84,14.36.22,7.71,3.3,15.72,5.99,23.11,9.88,3.98,2.09,7.05,6.02,10.25,9.39,1.07,1.13,1.82,1.77,3.45,1.75,8.12-.09,16.23,0,24.35,0,7.36,0,14.72-.05,22.08.02,6.78.07,13.56.31,20.34.4,5.47.07,10.96-.25,16.42.07,8.02.47,16.01,1.35,24.03,2.05-.06.45-.35,1.11-.16,1.3,3.3,3.42,3.32,11.47,3.32,11.47h16.1s.53.33.66.22c.56-.49,1.37-.96,1.54-1.58.97-3.47-.67-6.16-2.8-8.7-1.61-1.92-3.29-3.41-6.09-2.66-1.06.28-2.22.31-3.33.28-3.11-.14-6.21-.3-9.32-.42Zm-151.57-17.67c-1.78.44-3.69.61-5.3,1.38-3.24,1.55-6.88,2.64-8.76,6.18-.67,1.26-.43,4.52.53,4.55,2.2.09,4.43-.34,6.63-.62.09-.01.19-.7.13-1.04-.57-2.84,1.77-3.48,3.47-4.48,1.75-1.03,2.14.98,3.1,1.69.18.13.34.29.51.43,2.57,2.15,2.66,2.5.5,4.96-1.08,1.23-1.02,2.05-.1,3.44,1.59,2.4,2.77,5.06,4.05,7.65.24.49.25,1.19.12,1.74-.44,1.83-7.95,5.93-9.7,5.35-2.03-.67-4.83-5.24-4.64-7.33.07-.79-.32-1.63-.5-2.45-1.6.39-3.3-1.37-4.91.68-3.18,4.05-2.64,8.25-.22,12,2.04,3.16,5.16,5.76,9.5,4.69,2.42-.6,4.76-1.63,7.05-2.65,3.86-1.72,7.67-3.58,11.49-5.38,2.08-.98,2.88-2.58,2.7-4.88-.3-3.77-1.62-7.27-4.06-9.94-2.41-2.63-2.68-4.85-.87-7.7.9-1.41.76-2.77-.64-3.96-2.9-2.43-6-4.33-10.08-4.31Zm17.2,70.82c1.33-.56,3.65-1.17,5.54-2.43,2.21-1.46,3.97-3.57,6.05-5.26,2.75-2.25,3.62-5.14,2.6-8.36-.93-2.93-2.11-5.89-3.75-8.47-3.44-5.42-12.26-7.86-18.15-1.79-2.85,2.94-5.02,6.57-7.37,9.98-1.43,2.08-1.93,4.54-.54,6.74,3.38,5.35,8.11,8.77,15.62,9.59Zm-57.83-11.93c-.32,4.8,2.13,7.99,5.96,10.23,1.25.73,2.94,1.32,4.29,1.12,4.96-.73,8.86-3.77,12.54-6.87,2.66-2.24,3.96-7.81,1.23-10.69-2.77-2.92-5.85-5.3-9.8-6.22-2.92-.68-6.18-1.26-8.66.65-3.74,2.88-5.45,7.07-5.56,11.78Zm-7.63-19.03c7.52.67,10.78-4.93,11.85-10.26.84-4.19-1.29-7.27-5.37-8.08-3.04-.6-6.17-.79-9.26-1.14-.42-.05-.96-.04-1.27.19-5.64,4-8.19,9.07-5.29,15.74.79,1.82,2.01,3.03,4.23,3.03,1.71,0,3.41.34,5.11.52Zm118.16-8.1c7.01,0,13.39,0,19.77,0,1.51,0,1.86-1.07,2.04-2.18.76-4.64.32-9.04-2.92-12.76-.38-.43-1-.9-1.52-.92-4.76-.18-9.52-.28-14.28-.35-1.14-.02-2.28.21-3.75.35,3.29,5.21,2.36,10.3.66,15.85Zm-22.4.28c2.71-.25,2.68-.25,3.55-2.79,1.28-3.75,1.28-7.36-.7-10.95-.99-1.8-2.65-2.74-4.26-2.61-3.81.31-7.6,1.08-11.35,1.89-1.74.38-2.6,1.85-2.73,3.66-.25,3.58,2.57,8.03,6.15,9.03,3.05.85,6.23,1.2,9.34,1.77Zm-121.14-10.96c-.89-.09-1.39-.15-1.9-.18-2.86-.18-5.77-.09-8.58-.58-3.28-.58-5.35.15-6.3,3.38-.75,2.53-1.2,5.2-1.37,7.84-.24,3.81-.07,3.82,3.66,3.85.44,0,.88.15,1.32.15,3.45,0,6.9,0,10.52,0-1.15-4.95.46-9.6,2.65-14.47Zm72.86,56.87c-.04-.25.03-1.1-.32-1.69-1.21-2.03-2.54-3.98-3.93-5.89-.07-.09-1.48.39-1.6.8-.75,2.68-1.26,5.43-1.98,8.13-.39,1.46.27,2.1,1.49,2.45.49.14,1.05.05,1.54.17,3.44.85,4.72-.07,4.8-3.97Zm-7.8,19.17c-.18-2.37.87-4.92-1.13-7.07-2.8,1.02-2.96,1.36-1.97,3.99.23.62.51,1.25.6,1.9.22,1.51,1,1.82,2.5,1.18Zm9.77-7.11c-.56,2.63-1.09,4.67,1.38,5.92,2.04-.84,3.22-2.86,2.19-4.66-.46-.8-2.26-.84-3.57-1.26Zm-1.24,1.45h.04c0-.3-.02-.6,0-.89.14-1.84-1.08-2.44-2.5-2.25-.42.06-.74,1.54-.93,2.41-.11.47.22,1.02.2,1.52-.03,1.26.37,2.48,1.69,2.32.59-.07,1.03-1.58,1.49-2.45.09-.17,0-.44,0-.66Zm-4.1,2h.05c0-.44.15-.96-.03-1.32-.37-.72-.85-1.85-1.39-1.92-1.15-.14-2.17.51-2.02,1.99.11,1.09.15,2.22.48,3.24.13.41.99.86,1.46.81.52-.05,1.15-.57,1.41-1.06.23-.46.04-1.15.04-1.74Zm4.97,1.91c-1.73.29-3.47.27-3.57.67-.31,1.18-.14,2.58.22,3.77.12.39,1.4.43,2.15.63.34-1.42.68-2.84,1.2-5.07Zm5.1-2.72c-.3,2.65.9,3.28,2.46,3.39,1.48.1,1.88-.95,1.88-2.19-.01-1.9-1.59-1.98-2.82-2.08-.61-.05-1.28.73-1.52.88Zm-.9,7.28c.25.63.6,1.56.96,2.49.69-.85,1.41-1.68,2.06-2.55.21-.28.22-.7.38-1.02.66-1.33-.03-1.95-1.22-2.19-2.86-.58-1.45,1.78-2.18,3.27Zm-28,8.04c1.09,2.39,2.54,2.28,3.81,1,.45-.46.45-2.19,0-2.56-2.2-1.86-2.2,1.48-3.81,1.56Zm10.73-9.43c-.98,1.06-1.98,1.87-1.87,2.06.54.94,1.34,1.74,2.14,2.5.05.04,1.26-.8,1.2-1.04-.25-1.03-.79-1.98-1.47-3.52Zm29.17-3.39c-2.33.29-3.22,1.53-3.95,2.85-.15.27.29,1.23.64,1.34.53.18,1.57.1,1.76-.23.61-1.08.94-2.33,1.55-3.96Zm-32.23.31c-.27-.08-.53-.17-.8-.25-.5.82-1.52,1.73-1.39,2.42.24,1.23,1.08,2.48,3.15,1.8-.34-1.37-.65-2.67-.96-3.97Zm39.65,6.71c-2.57-.03-3.97,1.16-4.53,3.64,2.54.08,3.29-1.78,4.53-3.64Zm-9.66-1.12c-.35-.29-.45-.4-.57-.47-1.06-.58-1.97-.43-2.14.85-.15,1.08.07,2.21.12,3.32.59-.62,1.26-1.19,1.76-1.88.38-.51.55-1.17.83-1.82Zm-4.91-2.43c3.12-1.09,3.77-3.2,1.7-4.61-.58,1.58-1.14,3.09-1.7,4.61Zm11.05-.36c-1.1-.61-1.62-1.06-2.21-1.19-1.28-.29-1.82.57-1.69,1.63.06.51.97,1.39,1.23,1.31.79-.25,1.45-.9,2.67-1.75Zm-3.03,7.39c.87-.98,1.74-1.85,2.43-2.84.14-.21-.35-1.25-.61-1.27-1.35-.11-2.63,2.52-1.82,4.11Zm-13.16-8.64c-.32-.21-.64-.41-.96-.62-.78.71-1.57,1.43-2.35,2.14.76.3,1.86,1.06,2.2.81.61-.45.77-1.52,1.11-2.33Zm-27.85,10.67c.79-1.6.53-2.79-.79-3.36-.5-.21-1.4.54-2.51,1.01,1.41,1.01,2.24,1.6,3.3,2.35Zm2.97-6.48c-.89.39-1.64.5-1.97.94-.36.48-.54,1.31-.41,1.9.09.42.81.7,1.25,1.04.26-.53.6-1.05.77-1.61.18-.6.21-1.25.36-2.27Zm46.75-1.8c-.9-.43-1.57-1.02-1.94-.87-.63.26-1.06.98-1.58,1.51.52.39,1.15,1.18,1.54,1.07.65-.17,1.13-.92,1.98-1.71Zm-34.37-.72c-.2-.16-.39-.33-.59-.49-.64.48-1.83.96-1.82,1.42.01.89.7,1.77,1.11,2.65.21-.04.41-.07.62-.11.23-1.15.46-2.31.68-3.47Zm22.87,5.19c.26.14.52.28.78.41.58-1.06,1.17-2.12,1.75-3.17-.39-.06-.87-.3-1.16-.16-1.24.6-1.92,1.52-1.37,2.92Zm-18.4-5.24c-.88-.76-1.37-1.44-1.62-1.36-.71.23-1.32.77-1.97,1.19.29.41.64,1.21.87,1.17.75-.1,1.46-.5,2.72-1Z"/><path class="cls-1" d="m71.84,88.24c-.42-5.69-.77-12.01-1.37-18.3-.5-5.27,2.08-8.69,6.08-11.59,7.4-5.36,14.75-10.78,22-16.34,1.75-1.34,3.47-1.31,5.23-.88,6.84,1.68,13.67,3.44,20.44,5.38.8.23,1.6,1.63,1.8,2.61.59,2.83.82,5.73,1.32,8.58.43,2.5-.61,4.01-3.18,4.27-2.15.21-4.34.18-6.44.62-2.59.54-3.68-.86-4.61-2.81-.92-1.94-1.82-3.9-2.86-5.78-.74-1.33-2.02-2.38-3.51-1.54-6.08,3.41-12.07,7-18.1,10.52-1.24.72-1.32,1.73-1.05,3.04,1.57,7.65,3.08,15.31,4.59,22.97,1.11,5.63,1.09,5.73,6.8,6.24,3.7.33,7.44.35,11.16.36.63,0,1.56-.63,1.82-1.21.69-1.55,1.06-3.25,1.63-4.86.62-1.73-.02-2.77-1.55-3.63-1.93-1.1-3.73-2.43-5.62-3.58-1.23-.75-1.29-1.47-.27-2.44,1.24-1.18,2.53-2.33,3.59-3.66,1.62-2.04,3.48-2.39,5.92-1.66,3.83,1.15,7.73,2.04,11.59,3.09,2.8.76,2.83,1.02,1.83,3.62-1.77,4.57-3.31,9.24-5.14,13.78-1.53,3.78-3.17,7.54-5.12,11.11-.57,1.05-2.39,2.05-3.62,2.02-7.51-.18-15.01-.65-22.51-1.03-4.99-.25-9.98-.41-14.95-.78-5.74-.43-5.89-1.85-5.9-6.05,0-3.83,0-7.63,0-12.07Zm8.04-19.87c-.81,1.43-1.63,2.26-1.65,3.11-.01.62,1.33,1.9,1.55,1.79.98-.46,1.77-1.32,2.64-2.03-.67-.75-1.34-1.51-2.54-2.87Zm29.3,36.26c1.18-1.11,1.96-1.84,2.74-2.58-.92-.63-1.8-1.62-2.79-1.75-.58-.08-1.72,1.15-1.87,1.93-.11.55,1.03,1.34,1.92,2.4Zm10.02-47.64c1.11-.99,1.82-1.62,2.53-2.25-.94-.68-1.81-1.59-2.86-1.92-.4-.13-1.83,1.23-1.72,1.61.23.86,1.15,1.52,2.05,2.56Zm-31.38-3.26c-1,.96-1.91,1.51-2.21,2.29-.14.36,1.09,1.77,1.43,1.68.98-.26,1.82-1.04,2.71-1.61-.53-.65-1.07-1.31-1.93-2.36Zm15.39-9.21c-.72.9-1.69,1.77-1.56,2.01.44.78,1.22,1.72,2,1.85.59.1,1.38-.92,2.08-1.44-.75-.72-1.5-1.44-2.52-2.42Zm-9.53,56.98c0-.28-.01-.57-.01-.85-1.03-.35-2.04-.86-3.1-.99-.39-.05-.89.77-1.34,1.2.78.62,1.48,1.53,2.36,1.76.56.14,1.38-.72,2.09-1.12Zm22.58-22.72c-.72.88-1.6,1.6-1.48,1.89.31.74,1.05,1.77,1.65,1.79.73.02,1.49-.87,2.24-1.37-.68-.64-1.35-1.29-2.41-2.31Zm-36.03,13.38c.39-.2.77-.39,1.16-.59.66-.55,1.31-1.1,1.97-1.65-.59-.47-1.26-1.39-1.76-1.31-.76.13-1.65.83-2.01,1.53-.23.45.4,1.33.64,2.02Zm39.51-4.61c-.6,1-1.19,1.59-1.28,2.26-.05.38.71.87,1.1,1.3.61-.55,1.35-1.03,1.74-1.71.11-.18-.8-.96-1.56-1.85Z"/><path class="cls-1" d="m421.2,61.57c.3,5.57.58,11.14.91,16.7.08,1.45-.32,2.4-1.66,3.28-6.85,4.45-13.48,9.22-20.45,13.45-1.17.71-3.76-.32-5.43-1.11-5.85-2.77-8.08-8.66-11.34-13.66-1.05-1.61-2.14-3.21-3.17-4.83-2.19-3.44-4.55-6.8-6.45-10.4-.77-1.46-.91-3.49-.73-5.19.67-6.21,1.57-12.39,2.42-18.58.48-3.46,1.03-6.91,1.59-10.36.3-1.82,1.4-3.01,3.07-3.8,1.68-.8,3.35-1.63,4.92-2.62,3.97-2.49,8.02-2.79,12.55-1.47,4.89,1.42,9.98,2.12,14.95,3.27.73.17,1.44.95,1.91,1.61,1.07,1.51,1.78,3.33,3.02,4.66,2.18,2.34,2.26,5.06,2.14,7.92-.06,1.36-.5,2.18-2.17,1.99-2.35-.27-5.13.44-6.98-.6-1.77-.99-2.81-3.58-3.75-5.66-1.14-2.53-2.79-3.3-5.45-2.93-2.79.38-5.65.3-8.45.63-.73.09-1.76.83-2,1.5-2.79,7.93-5.09,16-5.93,24.38-.16,1.62.56,3.89,1.71,4.99,5.31,5.1,10.89,9.94,16.44,14.78,1.5,1.31,5.79-.18,6.34-2.12,1-3.5,1.84-7.04,2.83-10.54.35-1.23-.08-1.73-1.18-2.16-2.21-.87-4.32-2.02-6.55-2.8-2.1-.74-2.9-2-2.39-4.14.2-.85.29-1.75.58-2.57,1.39-3.83,1.42-3.89,5.32-3,3.83.87,7.62,1.93,11.45,2.84,1.75.41,2.78,1.11,2.32,3.17-.24,1.07-.04,2.23-.04,3.35-.12.01-.24.01-.35.02Zm-25.92,25.74c1.23-1.52,2.45-2.37,2.48-3.25.02-.74-1.25-2-2.12-2.17-1.2-.24-2.97.19-2.82,1.9.08,1,1.27,1.9,2.46,3.52Zm24.06-10.44c-1.31-.91-2.29-1.97-2.69-1.78-1.21.56-2.19,1.59-3.27,2.45.8.63,1.72,1.88,2.37,1.75,1.1-.22,2.04-1.3,3.59-2.42Zm-6.93-39.89c1.3-1.34,2.07-2.15,2.85-2.95-.94-.66-1.81-1.7-2.83-1.86-.7-.11-1.58,1-2.39,1.56.66.89,1.31,1.79,2.37,3.25Zm-32.05,12.59c.95-1.42,1.76-2.17,1.87-3.01.05-.42-1.25-1.48-1.83-1.4-.77.11-1.87.95-2,1.64-.11.58.93,1.39,1.96,2.77Zm3.23-15.03c.82-1.04,1.82-1.91,1.68-2.21-.41-.82-1.23-1.83-2.01-1.94-.56-.08-1.31,1.16-1.97,1.82.63.64,1.27,1.29,2.3,2.33Zm-2.67,29.36c0-.27-.01-.54-.01-.81-.75-.38-1.51-1.07-2.24-1.04-.6.02-1.72,1.08-1.63,1.38.24.78,1.01,1.94,1.58,1.94.76,0,1.53-.94,2.3-1.47Zm31-6.11c.02,2.15.72,3.22,2.56,2.82.61-.13,1.62-1.07,1.53-1.39-.62-2.31-2.54-.81-4.09-1.43Zm-14.41-31.37c-.72.66-1.21,1.1-1.69,1.54.82.6,1.57,1.45,2.48,1.7.47.13,1.23-.8,1.87-1.26-.83-.6-1.64-1.22-2.66-1.98Z"/><path class="cls-1" d="m298.1,20.61c2.18-.89,4.28-1.74,6.46-2.62,3.37,7.69,8.95,13.67,13.51,20.33.04.06.09.12.14.18,1.02,1.24,1.97,3.43,3.08,3.51,2.18.17,4.46-.77,6.66-1.42.46-.13.89-.93,1.03-1.5,1.25-5.25,2.43-10.52,3.66-15.78.09-.41.38-.77.56-1.1,3.89.92,7.67,1.81,11.45,2.71-1.65,10.48-3.39,20.56-4.75,30.7-.66,4.91-.84,9.92-.77,14.88.12,8.65-.53,17.18-2.68,25.58-.7,2.73-1.9,3.47-4.03,2.16-8.6-5.27-17.14-10.66-25.72-15.97-1.37-.85-1.78-1.8-1.04-3.31,1.19-2.46,2.25-4.98,3.37-7.47,5.98,2.22,10.79,6.71,17.11,8.88.35-10.01.67-19.42,1-29.08-4.9,1.29-9.28,2.31-13.57,3.63-1.75.54-2.84.44-3.56-1.31-1.53-3.76-3.16-7.49-4.58-11.29-2.15-5.75-4.18-11.54-6.21-17.34-.49-1.38-.74-2.84-1.12-4.37Zm17.96,24.5c.04-1.94-1.29-3.7-2.73-3.41-1,.21-2.32,1.17-2.59,2.07-.48,1.58,1.37,3.43,3.01,3.43s2.33-.82,2.31-2.09Zm18.39,41.68c-1.56-1.14-2.37-2.16-3.34-2.35-1.75-.34-2.47.88-2.59,2.55-.14,1.94,1.19,2.72,2.6,2.53.98-.14,1.81-1.42,3.33-2.73Zm-.32-27.72c-1.94.65-3.56,1.17-3.19,2.89.19.87,1.59,1.92,2.58,2.08,1.54.26,2.58-1.06,2.41-2.49-.11-.91-1.2-1.71-1.8-2.48Zm6.31-28.5c-.04-.33-.08-.66-.11-.99-.88-.33-1.74-.74-2.65-.97-1.72-.43-2.33.88-2.05,2.02.22.88,1.55,2.17,2.23,2.08.93-.12,1.72-1.37,2.58-2.14Zm-25.29,47.67c-1.02,1.08-1.64,1.74-2.26,2.4.84.78,1.69,1.55,2.53,2.33.6-.73,1.62-1.43,1.68-2.2.05-.66-1.02-1.39-1.95-2.53Zm18.86-30.06c1.01-1.25,1.95-1.9,2.02-2.62.13-1.55-1.16-1.81-2.44-1.89-1.36-.09-2.13.65-1.84,1.82.2.82,1.17,1.45,2.26,2.69Zm-26.68-21.95c-1.09-.81-1.83-1.74-2.31-1.62-.85.21-2.64.07-2.06,1.8.26.79,1.19,1.82,1.89,1.87.64.05,1.36-1.07,2.48-2.05Z"/><path class="cls-1" d="m226.01,74.66c4.67.26,9.34.62,14.01.75,2,.06,2.67.87,2.5,2.73-.32,3.4-.65,6.81-.87,10.22-.09,1.4.07,2.83.2,4.23.16,1.81-.59,2.62-2.4,2.51-10.25-.58-20.5-1.18-30.76-1.68-1.75-.09-2.49-.94-2.51-2.45-.08-8.84-.23-17.69-.06-26.53.07-3.68-.3-7.04-2.38-10.17-1.18-1.78-2.13-3.73-3.08-5.65-2.64-5.36-5.26-10.74-7.83-16.14-.91-1.91,0-3.65,2.09-4.22,2.51-.68,5.03-1.32,7.54-1.98,1.86-.49,2.92.15,3.84,1.92,3.73,7.16,7.74,14.18,11.42,21.37.83,1.62,1,3.72.97,5.6-.06,3.49-.54,6.97-.73,10.46-.12,2.11-.15,4.24,0,6.35.1,1.38.73,2.61,2.47,2.61h5.58s0,.05,0,.07Zm5.68,7.52c-1.71-.05-2.81.46-2.8,2.37,0,1.72.64,2.67,2.48,2.64,1.82-.03,3.12-1.14,3.09-2.76-.02-1.9-1.19-2.38-2.77-2.25Zm-16.01,1.74c.02-1-.64-1.77-2.13-1.79-1.65-.02-2.77,1.01-2.57,2.37.12.82,1.58,1.8,2.61,2.05,1.44.36,2.07-.78,2.09-2.63Zm-11.28-47.9c0-.33,0-.65-.02-.98-.69-.53-1.55-1.61-2.04-1.47-1.02.3-2.36,1.09-2.64,1.98-.42,1.33.88,2.26,2.13,2.09.91-.13,1.72-1.06,2.57-1.62Zm10.24,31.43c-1.19-.76-2.08-1.67-2.45-1.5-.91.45-1.59,1.38-2.36,2.12.66.66,1.55,1.99,1.93,1.86.93-.31,1.62-1.32,2.88-2.48Zm-4.66-18.29c-.86.73-1.45,1.23-2.03,1.72.61.58,1.22,1.61,1.83,1.61.7,0,1.39-.91,2.09-1.43-.55-.55-1.1-1.1-1.89-1.9Z"/><path class="cls-1" d="m178.93,60.52c1.02.18,2.01.2,2.89.53,2.56.97,5.08,2.04,7.61,3.1,2.45,1.03,2.69,1.53,1.61,3.9-4.64,10.2-9.2,20.44-14.11,30.51-.59,1.21-3.14,2.14-4.73,2.05-5.56-.29-11.12-.96-16.63-1.78-1.28-.19-3.05-1.27-3.48-2.37-2.89-7.44-5.65-14.95-8.06-22.56-.53-1.69.43-3.88.8-5.82.84-4.38,1.85-8.72,2.56-13.12.33-2.04,1.44-2.17,2.98-1.93.5.08.97.32,1.45.51,1.68.65,4.19.87,4.82,2.07.69,1.32-.28,3.56-.68,5.37-.5,2.24-1.13,4.45-1.76,6.66-1.33,4.6,1.52,12.47,8.5,12.74.15.01.3.01.45.02,5.38.29,5.29.25,7.77-4.67,2.14-4.24,4.51-8.37,6.76-12.55.41-.77.74-1.58,1.25-2.66Zm-21.9,25.59c-.38.52-1.41,1.29-1.42,2.06-.02,1.75,1.55,2.25,2.98,2.38,1.15.11,2.03-.46,1.96-1.84-.09-1.79-1.28-2.33-3.52-2.6Zm14.53,3.17c-1.71.57-3.38.36-3.27,2.33.09,1.76,1.74,2.13,2.97,1.77.96-.28,1.65-1.49,2.46-2.28-.71-.61-1.44-1.21-2.16-1.82Zm11.03-23.39c-.36.06-.71.12-1.07.18-.23,1.02-.7,2.07-.57,3.04.05.39,1.48.9,2.19.79.58-.1,1.57-1.3,1.44-1.56-.45-.92-1.29-1.65-1.99-2.45Zm-5.2,10.29c-.86,1.04-1.73,1.65-1.8,2.35-.05.45,1.21,1.53,1.66,1.42.79-.2,1.41-1.09,2.1-1.69-.53-.57-1.07-1.14-1.96-2.08Zm-25.36-1.03c-1.22-.75-1.76-1.27-2.39-1.42-1.02-.24-2.12.02-1.94,1.33.09.65.94,1.65,1.49,1.67.7.03,1.44-.75,2.84-1.58Zm1.43-14.98c0-.31,0-.62.02-.92-.99-.38-1.98-.8-3-1.08-.08-.02-.66.87-.57,1.22.16.63.68,1.66,1.02,1.65.85-.04,1.69-.55,2.53-.87Z"/><path class="cls-1" d="m466.68,70.02c-1.03.72-2.07,1.43-3.35,2.32,2.55,1.18,1.96,4.33,7.89,3.89-2.45,1.15-4.24,1.07-5.61-.59-.62-.75-1.7-1.38-2.57-2.07.68,1.3,2.03,2.38,2.95,3.56.99,1.28,2.34,1.29,4.1.63,2.33-.88,4.58-1.83,6.92-2.69.65-.24,1.89-.54,2.26-.39,2.16.91,5.01,1.52,4.89,3.49-.11,1.85.05,3.72.43,5.56.28,1.36-.74,2.06-2.91,2.36-6.88.96-13.77,1.9-20.68,2.8-2.21.29-3.66-.16-4.47-1.45-.92-1.46-2.15-2.88-3.58-4.21-3.04-2.83-6.19-5.64-9.5-8.38-1.9-1.57-1.97-2.7,1.5-3.54.85-.21,1.48-.7,2.2-1.07,6-3.05,12.01-6.09,18-9.15,1.42-.73,3.27-1.36,4.08-2.26,1.88-2.11,3.24-4.36,4.99-6.8-3.94-.71-7.55-1.19-10.88-2.01-2.9-.72-3.98,0-4.93,1.24-.76.99-1.52,1.98-2.31,2.96-1.05,1.32-2.45,1.36-4.94.86-4.08-.81-5.62-2.08-4.79-4.37.23-.63.06-1.33-.18-1.97-.53-1.45,1.12-2.07,3.07-2.58,6.99-1.81,14.06-3.53,20.98-5.43,1.7-.47,2.74-.34,3.65.33,4.74,3.49,9.49,6.97,14.02,10.54.66.52.71,1.62.15,2.19-2.48,2.53-5.24,4.97-7.99,7.42-3.13,2.79-7.02,5.1-12.64,6.52-2.1.53-3.79,1.59-5.51,2.5-.63.33-.8.92-1.18,1.39.25.11.51.22.76.34,1.71-.64,3.45-1.29,5.18-1.94h0Zm-2.39,11.16c-1.03-.36-2.05-.99-3.1-1-.83-.01-2.25.68-2.37,1.14-.11.43,1.15.97,2.4,1.9,1.42-.94,2.24-1.49,3.07-2.04Zm9.01.55c-.13.15,1.48,1.07,1.98,1,1.31-.19,2.45-.73,3.66-1.14-.79-.49-1.58-.97-2.86-1.76-1.26.81-2.26,1.29-2.78,1.9Zm-17.98-7.45c.44-.23.27-1.3-.25-1.51-1.98-.79-3.58-.18-5.31.85,1.91.88,3.5,1.74,5.56.66Zm16.93-28.76c-.97-.39-1.87-.99-2.94-1.09-.55-.05-1.86.74-1.94,1.2-.06.35,1.28.77,2.52,1.45,1.09-.72,1.73-1.14,2.36-1.56Zm7.05,8.16c.7.25,1.39.71,2.09.71,1.84.02,2.74-.51,1.81-2.08-1.49.52-2.7.94-3.9,1.37Zm-26.02-3.43c.36.05,1.1-.65,1.66-1-.73-.33-1.39-.77-2.22-.94-.4-.08-1.14.37-2.24.75,1.27.58,1.95,1.06,2.8,1.19Zm14.47,12.81c.35.37.83,1.08,1.04,1.05,1.1-.13,2.12-.43,3.17-.68-.24-.31-.47-.61-.71-.92-1.16.2-2.33.37-3.5.55Z"/><path class="cls-1" d="m499.09,68.44c.93.48,1.82.69,2.32,1.24,3.57,3.96,7.25,7.85,10.52,12.05,4.46,5.73,7.16,12.46,10.03,19.06,2.99,6.87,3,14.16,3.19,21.47.15,5.6-3.27,8.6-7.3,11.37-.92.63-1.82,1.28-2.55,1.79-.17-.78-.08-1.89-.58-2.37-2.57-2.43-5.27-4.73-8-6.99-.98-.81-1.94-.72-2.85.47-.64.84-1.71,1.35-2.87,1.78,1.82-2.15,3.83-4.18,5.42-6.49,4.47-6.49,10.33-12.67,8.27-21.47-1.14-4.87-3.18-9.58-5.28-14.15-2.07-4.51-4.69-8.78-7.15-13.11-.85-1.5-1.94-2.87-3.17-4.65Z"/><path class="cls-1" d="m20.01,107.14c-2.35-3.78-9.14-1.84-12.34,1.88-1.31-6.48-1.6-12.96.34-19.34.59-1.96,1.57-3.87,2.72-5.57,3.16-4.72,6.53-9.31,9.76-13.99.96-1.4,1.69-2.95,2.61-4.38.42-.65,1.03-1.17,1.55-1.76.17.09.33.19.5.28-1.28,3.33-2.06,6.97-3.95,9.91-3.78,5.9-4.77,12-3.44,18.75.95,4.7,1.52,9.48,2.25,14.22Z"/><path class="cls-1" d="m277.45,31.56c-.65,3.25-1.28,6.51-1.96,9.76-.72,3.41-1.75,6.77-2.15,10.21-.27,2.3.24,4.72.55,7.06.41,3.07.98,6.12,1.56,9.66,5.63-1.99,11.09-3.93,16.45-5.82,1.57,8.86,3.06,17.54,4.68,26.2.3,1.61-.46,1.93-1.68,2.22-4.49,1.03-8.98,2.12-13.47,3.16-5.35,1.25-10.7,2.48-16.04,3.72-1.59.37-2.78.24-3.61-1.56-1.14-2.48-2.38-5-4.05-7.13-2.64-3.37-2.77-7.19-2.98-11.13-.42-8.18-.93-16.36-1.5-24.53-.34-4.88-.87-9.76-1.3-14.63-.05-.59-.1-1.23.07-1.78,1.7-5.52,3.45-11.03,5.17-16.55.65-2.09,1.25-4.21,1.79-6.04,5.49,1.43,10.84,2.81,16.18,4.24.51.14.93.59,1.39.89l.03-.04c-5.02-1.28-10.06-2.48-15.04-3.89-1.53-.43-2.05-.2-2.48,1.34-1.52,5.49-2.93,11.04-4.9,16.38-1.33,3.58-1.47,7.15-1.23,10.75.39,5.92,1.29,11.8,1.79,17.71.55,6.67.84,13.37,1.36,20.05.11,1.42.43,2.97,1.14,4.17,1.63,2.79,4.07,5.2,5.21,8.14.96,2.46,1.87,3.13,4.29,2.54,8.88-2.16,17.77-4.27,26.68-6.26,1.73-.38,2.26-1.1,1.98-2.7-1.39-7.94-2.79-15.88-4.2-23.94-.75.1-1.28.08-1.74.25-4.04,1.5-8.11,2.91-12.07,4.59-2.25.96-3.16-.01-3.44-2.01-.21-1.53-.58-3.05-.71-4.59-.3-3.45-.87-6.93-.63-10.35.25-3.51,1.25-6.98,2.1-10.42.81-3.25,1.85-6.44,2.79-9.66h-.03Z"/><path class="cls-1" d="m426.7,15.66c4.41-.53,8.66-1.04,13.3-1.6-.93,3.23-1.74,6.18-2.66,9.11-.57,1.84-1.23,3.66-2,5.43-.27.63-1.08,1.57-1.48,1.5-.91-.16-2.23-.67-2.51-1.39-1.68-4.27-3.11-8.63-4.65-13.05Zm5.92,5.04c.85-.81,1.36-1.29,1.87-1.78-.67-.55-1.28-1.35-2.05-1.56-.44-.12-1.15.7-1.74,1.1.55.63,1.09,1.27,1.92,2.24Z"/><path class="cls-1" d="m245.1,73.52c0,5.7.03,10.81-.02,15.93-.02,1.77.1,3.65-.45,5.28-.35,1.02-1.77,2.22-2.83,2.34-2.24.27-4.55-.11-6.83-.59,1.78,0,3.56.05,5.34-.01,2.99-.1,4.08-1.45,4.04-4.36-.08-5.33-.09-10.67.08-16,.06-1.74-.25-2.41-2.09-2.47-6.23-.21-12.46-.55-18.69-.88-.95-.05-1.95-.2-2.81-.57-.49-.21-1.05-.97-1.04-1.47.05-1.7.16-3.44.56-5.08,1.33-5.39.61-10.72-.82-15.86-.88-3.15-2.8-6.03-4.41-8.94-3.1-5.59-6.31-11.12-9.18-16.95.35.19.86.29,1.02.59,4.35,7.91,8.77,15.78,12.9,23.81,1.01,1.96,1.28,4.42,1.39,6.68.17,3.82,1.29,7.64-.07,11.5-.45,1.27-.38,2.85-.09,4.19.14.64,1.33,1.46,2.07,1.49,5.05.2,10.12.11,15.17.33,2.41.13,4.79.73,6.76,1.04Z"/><path class="cls-1" d="m332.1,100.55c.36.05.76.02,1.07.17,1.87.93,2.96.23,3.97-1.47,2.89-4.82,3.66-10.14,3.92-15.59.48-10.08.65-20.18,1.43-30.24.55-7.01,1.91-13.96,2.89-20.93.35-2.49.73-4.99.89-7.5.04-.61-.59-1.51-1.16-1.86-.92-.56-2.05-.77-3.07-1.12,3.84-.61,5.18.83,4.63,4.5-.83,5.57-1.37,11.19-2.06,16.78-.43,3.45-1,6.89-1.33,10.35-.39,4.07-.6,8.16-.84,12.24-.49,8.17-.62,16.37-1.56,24.49-.41,3.54-2.28,6.98-3.84,10.31-.87,1.86-3.14,1.63-4.92-.16.02,0-.02.03-.02.03Z"/><path class="cls-1" d="m189.77,29.8c1.56,4.19,2.93,8.47,4.72,12.56,2.01,4.6,4.27,9.11,6.66,13.54,2.38,4.4,2.68,9.02,2.27,13.85-.46,5.41-.95,10.84-1.1,16.26-.08,2.94.42,5.92.91,8.84.08.49,1.46,1.07,2.24,1.08,5.65.09,11.31.05,16.96.44h-20.03c-.27-2.84-.86-5.91-.77-8.96.18-6.77.62-13.53,1.1-20.29.3-4.23-.92-7.98-2.7-11.76-3.65-7.76-7.02-15.65-10.48-23.5-.25-.57-.3-1.23-.45-1.85.23-.07.45-.14.67-.21Z"/><path class="cls-1" d="m295.73,18.9c.94,3.77,1.64,7.61,2.88,11.28,2.75,8.18,5.73,16.29,8.71,24.39,1.14,3.11,2.26,3.56,5.46,2.67,3.58-.99,7.15-1.99,10.83-2.87-1.65.66-3.26,1.42-4.95,1.94-2.19.68-4.51,1.01-6.66,1.79-2.56.93-4.12-.17-4.93-2.3-2.8-7.3-5.52-14.63-8.11-22-1.42-4.04-2.54-8.18-3.7-12.31-.24-.87-.04-1.87-.04-2.82.17.08.34.15.51.23Z"/><path class="cls-1" d="m422.19,53.93c1.9-.19,2.38.81,2.41,2.54.13,7.71.31,15.43.59,23.14.05,1.34-.21,2.01-1.44,2.76-3.91,2.41-7.67,5.05-11.46,7.64-2.93,2-5.8,4.1-8.76,6.07-.78.52-1.78.68-2.68,1.01h0c6.67-4.66,13.18-9.57,20.07-13.86,2.92-1.82,3.69-3.64,3.5-6.86-.4-6.74-.31-13.51-.57-20.27-.03-.76-1.06-1.48-1.62-2.22l-.04.05Z"/><path class="cls-1" d="m158.3,102.78c-5.97-.4-8.58-1.81-9.96-6.35-1.78-5.86-4.21-11.53-6.04-17.38-.94-3.02-1.83-6.24-.19-9.91-.46,8.79,3.19,16.1,5.68,23.68.32.98.83,1.9,1.14,2.89,1.11,3.6,3.38,5.78,7.21,6.26.73.09,1.42.55,2.13.84l.03-.03Z"/><path class="cls-1" d="m369.7,63.2c-.85-2.23-.78-5.01-.25-7.9,1.55-8.44,2.93-16.91,4.43-25.36.16-.89.69-1.7,1.25-3.01-1.54,12.68-5.52,24.36-5.43,36.27Z"/><path class="cls-1" d="m323.79,77.81c-1.37-.72-2.52-1.32-3.68-1.92.05-.11.09-.22.14-.32.77.28,1.55.56,2.71.98.46-7.75.91-15.3,1.36-22.85.23,0,.45.03.68.04-.4,7.91-.8,15.82-1.21,24.07Z"/><path class="cls-1" d="m422.23,53.88c-3.19-.61-6.39-1.18-9.57-1.84-3.12-.64-6.23-1.39-9.35-2.06-1.23-.27-1.9.2-2.23,1.5-.89,3.57-1.9,7.11-3.24,10.6.2-1.17.3-2.37.6-3.51.72-2.73,1.46-5.45,2.36-8.12.18-.55,1.14-1.33,1.58-1.23,6.37,1.36,12.71,2.85,19.05,4.32.27.06.5.26.75.39.01,0,.05-.05.05-.05Z"/><path class="cls-1" d="m311.95,88.7c-3.45-2.41-6.89-4.82-10.24-7.16,1.84-5.06,3.58-9.72,6.87-13.6-1.5,3.15-3.05,6.28-4.5,9.46-.96,2.12-1.36,4.17,1.06,5.77,2.43,1.61,4.75,3.38,7.12,5.08-.11.15-.21.3-.31.45Z"/><path class="cls-1" d="m329.55,26.64c-.94,3.86-1.86,7.73-2.87,11.57-.13.49-.66,1.03-1.14,1.24-2.31,1.01-5.39.06-6.86-2.07-1.25-1.8-2.43-3.65-3.65-5.48.15-.11.29-.21.44-.32,1.34,1.93,2.9,3.75,3.96,5.83,1,1.95,2.5,1.83,4.14,1.74,1.6-.09,2.46-.88,2.83-2.55.75-3.38,1.74-6.7,2.63-10.05.17.04.35.06.52.09Z"/><path class="cls-1" d="m123.15,43.88c1.59.52,3.2,1.01,4.77,1.6.33.13.71.61.75.96.51,4.57.97,9.15,1.43,13.72.04.36-.09.73-.34,1.11-.63-4.45-1.39-8.89-1.81-13.36-.16-1.7-.68-2.38-2.29-2.61-.93-.13-1.81-.62-2.71-.94.07-.16.14-.32.2-.48Z"/><path class="cls-1" d="m409.04,66.37c-.96-.41-1.62-.69-2.27-.97.02-.1.05-.21.07-.31.99.2,1.99.4,3.26.66-1.41,4.04-2.75,7.88-4.24,12.18-1.89-1.25-3.77-2.49-5.64-3.73.1-.16.2-.31.3-.47,1.06.73,2.12,1.46,3.18,2.18.88.6,1.65.69,2.09-.51,1.08-2.98,2.15-5.96,3.25-9.03Z"/><path class="cls-1" d="m393.26,38.67c-1.57,6.59-3.13,13.19-4.74,19.77-.15.61-.64,1.13-.96,1.7l.05.04c.91-3.42,1.91-6.82,2.72-10.27.71-3.02,1.16-6.11,1.83-9.14.15-.75.72-1.41,1.1-2.1h0Z"/><path class="cls-1" d="m487.55,86.3c.3-2.92.6-5.83.89-8.75.03-.29.16-.7-.12-.86-2.73-1.54-5.54-3.04-8.33-4.55-.25.14-.51.29-.76.43,2.04,1.06,4.01,2.16,6.15,3.16,1.76.82,2.34,1.72,2.02,2.98-.47,1.89-.62,3.8-.8,5.7-.06.63.21,1.27.33,1.9.22,0,.42-.01.62-.01Z"/><path class="cls-1" d="m408.71,44.28c2.94,0,5.89.03,8.83,0,2.77-.04,3.69-.99,3.74-3.78.03-1.61.01-3.22.36-4.85,0,2.52.19,5.07-.12,7.56-.09.69-1.61,1.67-2.52,1.72-3.39.21-6.81.08-10.21.08-.02-.24-.05-.48-.08-.72Z"/><path class="cls-1" d="m155.75,69.5c.9,2.17,1.7,4.38,2.73,6.49.99,2.04,2.97,2.54,5.05,2.65.8.05,1.61.01,2.39.33-2.56-.11-5.72.89-7.38-1.54-1.55-2.28-3.06-4.88-2.79-7.93Z"/><path class="cls-1" d="m312.61,29.02c-2.24-4.67-4.48-9.34-6.72-14.01.14-.14.29-.28.43-.42.35.2.97.34,1.02.6.92,4.84,3.46,8.94,5.89,13.09.06.1-.02.27-.03.41-.2.1-.4.21-.59.33Z"/><path class="cls-1" d="m103.54,93.54c-2.29,0-4.59.11-6.86-.07-.67-.05-1.71-.85-1.84-1.47-.63-2.94-1.01-5.93-1.04-8.97.45,2.36.98,4.71,1.32,7.09.31,2.15,1.5,3.13,3.57,3.17,1.62.04,3.25.01,4.87.01,0,.08-.01.16-.02.24Z"/><path class="cls-1" d="m158.27,102.83c4.3.21,8.59.42,12.89.61.87.04,1.74.01,2.61.22-5.19.54-10.33-.01-15.47-.88,0,0-.03.05-.03.05Z"/><path class="cls-1" d="m177.7,57.76c4.82-.48,7.86,4.55,12.66,4.31-4.99,1.05-8.04-4.02-12.66-4.31Z"/><path class="cls-1" d="m400.84,97.08c.07.48.15.97.31,2.02-4.8-1.71-9.11-3.36-13.15-6.84,3.85,1.96,7.12,3.71,10.48,5.26.6.27,1.57-.27,2.36-.44.01,0,0,0,0,0Z"/><path class="cls-1" d="m100.96,81.83c2.83,3.78,7.35,4.2,11.24,6.73-7.46-2.08-10.89-4.11-11.24-6.73Z"/><path class="cls-1" d="m443.72,54.65c1.83,1.4,12.52,3.3,13.94,2.83-4.64-.95-9.29-1.89-13.94-2.83Z"/><path class="cls-1" d="m276.55,19.51c2.93.25,3.87,1.38,3.17,4.15-.66,2.66-1.51,5.27-2.28,7.9l.04.03c.38-1.86.59-3.78,1.18-5.57.9-2.77.95-5.1-2.08-6.55l-.03.04Z"/><path class="cls-1" d="m391.77,146.64l10.98.51c-.01.2-.02.41-.02.61-3.66-.17-7.33-.34-10.99-.5,0-.21.02-.41.03-.62Z"/><path class="cls-1" d="m429.5,31.72c3.25.16,5.96,1.07,8.82-.33-.18.43-.37,1.35-.61,1.36-2.61.17-5.28.66-8.21-1.03Z"/><path class="cls-1" d="m387.55,60.13c.05,4.52,4.2,5.95,6.58,8.72-.13.15-.26.3-.4.44-2.1-2.05-4.3-4.01-6.21-6.22-.47-.54.03-1.91.08-2.9,0,0-.05-.04-.05-.04Z"/><path class="cls-1" d="m471.91,89.46c-6.47-.44-11.82,2.01-17.36.61.66,1.12,1.18,1.3,3.98.99,4.14-.47,8.27-.99,13.38-1.6Z"/><path class="cls-1" d="m154.01,52.49c5.62.42,6.2,1.27,4.42,6.48,1.63-4.31-.94-5.67-4.42-6.48Z"/><path class="cls-1" d="m471.27,38.79c5.49.27,6.64,3.05,10.17,4.37-2.31-2.95-6.77-5.02-10.17-4.37Z"/><path class="cls-1" d="m466.68,70.02c3.34.18,9.38-1.86,10.98-3.5-3.32,1.06-7.15,2.28-10.98,3.5h0Z"/><path class="cls-1" d="m470.06,53.87c.31-.42.59-.79.95-1.27-2.94-.68-5.76-1.31-8.88-1.25,2.7.75,6.25.48,7.93,2.52Z"/><path class="cls-1" d="m393.26,38.67c-.07-.78-.14-1.57-.22-2.49,3.35-.22,6.47-.42,9.6-.63.01.11.02.23.02.34-2.32.19-4.65.53-6.97.54-1.67,0-2.51.51-2.43,2.24h0Z"/><path class="cls-1" d="m333.32,19.15c-3.51.06-1.79,3.58-3.67,5,.51-1.86.81-3.43,1.44-4.86.14-.31,1.45-.1,2.23-.14Z"/><path class="cls-1" d="m74.35,108.78c-2.6-1.11-4.77-2.11-5.34-4.91,1.7,1.56,3.38,3.11,5.34,4.91Z"/><path class="cls-1" d="m332.14,100.51c-2.43-.95-4.85-1.89-7.28-2.84.12-.27.25-.55.37-.82,2.29,1.23,4.58,2.47,6.87,3.7l.04-.04Z"/><path class="cls-2" d="m271.67,115.91c4.08-.03,7.18,1.88,10.1,4.33,1.41,1.18,1.54,2.54.64,3.96-1.81,2.85-1.54,5.07.87,7.7,2.44,2.66,3.76,6.17,4.06,9.94.18,2.3-.62,3.9-2.7,4.88-3.83,1.8-7.63,3.66-11.49,5.38-2.29,1.02-4.63,2.05-7.05,2.65-4.35,1.07-7.46-1.53-9.5-4.69-2.43-3.76-2.96-7.96.22-12,1.61-2.06,3.31-.29,4.91-.68.18.82.57,1.65.5,2.45-.19,2.09,2.61,6.67,4.64,7.33,1.75.57,9.26-3.52,9.7-5.35.13-.54.12-1.25-.12-1.74-1.28-2.59-2.47-5.26-4.05-7.65-.92-1.4-.98-2.22.1-3.44,2.16-2.45,2.07-2.81-.5-4.96-.17-.14-.33-.3-.51-.43-.97-.71-1.35-2.72-3.1-1.69-1.7,1-4.04,1.64-3.47,4.48.07.34-.04,1.03-.13,1.04-2.21.28-4.43.71-6.63.62-.97-.04-1.2-3.29-.53-4.55,1.88-3.54,5.51-4.63,8.76-6.18,1.59-.79,3.5-.96,5.28-1.4Z"/><path class="cls-2" d="m288.87,186.73c-7.52-.82-12.24-4.24-15.61-9.58-1.39-2.2-.9-4.66.54-6.74,2.35-3.41,4.51-7.04,7.37-9.98,5.89-6.07,14.71-3.63,18.15,1.79,1.64,2.58,2.81,5.54,3.75,8.47,1.02,3.21.15,6.11-2.6,8.36-2.07,1.69-3.84,3.79-6.05,5.26-1.9,1.25-4.22,1.86-5.55,2.42Zm.61-18.19c-3.38.02-4.56,1.07-4.5,4,.04,2.31,1.61,3.71,4.08,3.67,2.44-.05,4.46-2.07,4.4-4.39-.07-2.41-1.14-3.3-3.98-3.28Z"/><path class="cls-2" d="m231.04,174.8c.11-4.71,1.82-8.9,5.57-11.78,2.48-1.91,5.74-1.32,8.66-.65,3.96.92,7.04,3.3,9.8,6.22,2.73,2.88,1.43,8.45-1.23,10.69-3.68,3.09-7.58,6.13-12.54,6.87-1.36.2-3.05-.4-4.29-1.12-3.84-2.24-6.29-5.43-5.97-10.23Zm12.45,1.38c2.45-.04,3.7-1.12,3.55-2.86-.13-1.53-.99-2.44-2.59-2.48-1.62-.04-3.26,1.44-3.3,2.92-.06,1.91,1.2,2.3,2.34,2.42Z"/><path class="cls-2" d="m223.41,155.77c-1.7-.19-3.4-.52-5.11-.52-2.22,0-3.44-1.21-4.23-3.03-2.9-6.67-.34-11.74,5.29-15.74.31-.22.85-.23,1.27-.19,3.09.34,6.22.53,9.26,1.14,4.08.81,6.2,3.89,5.37,8.08-1.07,5.33-4.33,10.93-11.85,10.26Z"/><path class="cls-2" d="m341.57,147.67c1.71-5.56,2.63-10.64-.65-15.85,1.47-.14,2.61-.37,3.75-.35,4.76.06,9.52.17,14.28.35.52.02,1.14.49,1.52.92,3.24,3.72,3.68,8.12,2.92,12.76-.18,1.1-.53,2.18-2.04,2.18-6.39-.02-12.78,0-19.78,0Z"/><path class="cls-2" d="m319.17,147.95c-3.12-.57-6.3-.92-9.34-1.78-3.59-1-6.4-5.45-6.15-9.03.13-1.82.98-3.28,2.73-3.66,3.75-.81,7.54-1.58,11.35-1.89,1.6-.13,3.27.82,4.26,2.61,1.98,3.59,1.98,7.2.7,10.95-.86,2.55-.84,2.56-3.55,2.8Z"/><path class="cls-2" d="m198.03,136.99c-2.18,4.86-3.8,9.51-2.64,14.47-3.62,0-7.07,0-10.52,0-.44,0-.88-.15-1.32-.15-3.73-.04-3.89-.04-3.66-3.85.16-2.64.62-5.31,1.37-7.84.95-3.23,3.02-3.95,6.3-3.38,2.81.49,5.72.41,8.58.58.49.03,1,.1,1.89.18Z"/><path class="cls-2" d="m423.24,133.34c3.1.12,6.2.28,9.31.35,1.11.03,2.27,0,3.33-.28,2.8-.75,4.48.75,6.09,2.66,2.13,2.54,3.77,5.23,2.8,8.7-.17.63-.98,1.09-1.54,1.58-.13.11-.43.02-.66.02h-16.1c.92-4.23-.02-8.29-3.32-11.71-.19-.2.1-.86.16-1.3,0,0-.07-.02-.07-.02Z"/><path class="cls-2" d="m270.89,193.86c-.08,3.9-1.36,4.82-4.79,3.96-.5-.12-1.05-.03-1.54-.17-1.22-.35-1.88-.98-1.49-2.45.72-2.69,1.22-5.44,1.98-8.13.11-.4,1.53-.89,1.6-.8,1.39,1.91,2.72,3.86,3.93,5.89.34.6.27,1.45.31,1.7Z"/><path class="cls-2" d="m263.09,213.03c-1.5.64-2.28.33-2.49-1.18-.09-.65-.37-1.27-.6-1.9-.99-2.63-.83-2.97,1.97-3.99,1.99,2.15.94,4.71,1.12,7.07Z"/><path class="cls-2" d="m272.86,205.92c1.31.42,3.11.46,3.57,1.26,1.03,1.8-.15,3.82-2.19,4.66-2.47-1.25-1.94-3.29-1.38-5.92Z"/><path class="cls-2" d="m271.62,207.37c0,.22.08.49-.01.66-.47.88-.9,2.38-1.49,2.45-1.31.16-1.72-1.06-1.69-2.32.01-.51-.31-1.06-.2-1.52.2-.87.51-2.35.93-2.41,1.42-.19,2.64.41,2.5,2.25-.02.3,0,.59,0,.89,0,0-.02,0-.04,0Z"/><path class="cls-2" d="m267.52,209.37c0,.59.19,1.27-.05,1.74-.25.49-.89,1.01-1.41,1.06-.47.05-1.33-.4-1.46-.81-.33-1.03-.37-2.15-.48-3.24-.15-1.48.87-2.13,2.02-1.99.54.07,1.03,1.2,1.39,1.92.18.35.03.87.03,1.32h-.04Z"/><path class="cls-2" d="m272.49,211.28c-.53,2.22-.86,3.65-1.2,5.08-.75-.2-2.03-.24-2.15-.63-.36-1.2-.52-2.6-.22-3.77.1-.41,1.84-.38,3.57-.68Z"/><path class="cls-2" d="m277.59,208.56c.23-.15.91-.93,1.51-.88,1.24.1,2.81.18,2.82,2.08.01,1.25-.39,2.29-1.88,2.19-1.55-.11-2.74-.74-2.45-3.39Z"/><path class="cls-2" d="m276.69,215.84c.72-1.49-.68-3.85,2.19-3.28,1.2.24,1.88.86,1.22,2.19-.16.33-.17.74-.38,1.02-.65.87-1.37,1.7-2.06,2.55-.36-.92-.72-1.85-.97-2.48Z"/><path class="cls-2" d="m248.69,223.88c1.61-.08,1.61-3.42,3.81-1.56.45.38.45,2.11,0,2.56-1.27,1.28-2.72,1.38-3.81-1Z"/><path class="cls-2" d="m259.42,214.45c.68,1.54,1.22,2.49,1.47,3.51.06.25-1.16,1.09-1.2,1.04-.8-.76-1.6-1.56-2.14-2.5-.1-.18.89-.99,1.87-2.05Z"/><path class="cls-2" d="m288.59,211.06c-.6,1.62-.94,2.87-1.56,3.97-.19.33-1.23.4-1.76.23-.34-.12-.79-1.07-.64-1.34.73-1.32,1.62-2.57,3.96-2.86Z"/><path class="cls-2" d="m256.36,211.37c.31,1.3.63,2.6.96,3.97-2.07.68-2.91-.57-3.15-1.8-.13-.69.89-1.61,1.39-2.42.26.08.53.16.8.25Z"/><path class="cls-2" d="m296.01,218.08c-1.25,1.86-2,3.73-4.53,3.64.56-2.49,1.97-3.67,4.53-3.64Z"/><path class="cls-2" d="m286.35,216.96c-.29.65-.46,1.31-.83,1.82-.5.69-1.17,1.26-1.76,1.88-.05-1.11-.27-2.24-.12-3.32.18-1.28,1.09-1.42,2.14-.85.13.07.23.19.57.47Z"/><path class="cls-2" d="m281.44,214.53c.56-1.51,1.12-3.03,1.7-4.61,2.08,1.41,1.43,3.51-1.7,4.61Z"/><path class="cls-2" d="m292.49,214.17c-1.21.85-1.88,1.5-2.67,1.75-.27.09-1.17-.8-1.23-1.31-.13-1.06.42-1.92,1.69-1.63.59.13,1.1.58,2.21,1.19Z"/><path class="cls-2" d="m289.46,221.56c-.81-1.59.48-4.22,1.82-4.11.26.02.75,1.07.61,1.27-.69,1-1.56,1.86-2.43,2.84Z"/><path class="cls-2" d="m276.3,212.92c-.35.81-.5,1.88-1.11,2.33-.34.25-1.44-.51-2.2-.81.78-.71,1.57-1.43,2.35-2.14.32.21.64.41.96.62Z"/><path class="cls-2" d="m248.45,223.59c-1.06-.75-1.89-1.34-3.3-2.34,1.11-.48,2.01-1.23,2.51-1.01,1.32.56,1.58,1.75.79,3.35Z"/><path class="cls-2" d="m251.42,217.11c-.15,1.03-.18,1.67-.36,2.27-.17.56-.51,1.07-.77,1.61-.44-.34-1.17-.62-1.25-1.04-.12-.6.05-1.42.41-1.9.32-.44,1.08-.55,1.97-.94Z"/><path class="cls-2" d="m298.17,215.31c-.85.79-1.34,1.54-1.98,1.71-.39.11-1.02-.68-1.54-1.07.52-.53.95-1.25,1.58-1.51.37-.15,1.05.44,1.94.87Z"/><path class="cls-2" d="m263.8,214.59c-.23,1.16-.45,2.32-.68,3.47-.21.04-.41.07-.62.11-.41-.88-1.1-1.76-1.11-2.65-.01-.47,1.17-.95,1.82-1.42.2.17.4.33.59.49Z"/><path class="cls-2" d="m286.67,219.78c-.56-1.4.13-2.32,1.38-2.92.29-.14.77.1,1.16.16-.58,1.06-1.17,2.12-1.75,3.17-.26-.13-.53-.27-.79-.41Z"/><path class="cls-2" d="m268.27,214.54c-1.26.5-1.97.9-2.72,1-.23.03-.57-.76-.87-1.17.65-.42,1.26-.96,1.97-1.19.25-.09.74.59,1.62,1.36Z"/><path class="cls-2" d="m79.88,68.37c1.2,1.35,1.87,2.11,2.54,2.87-.86.71-1.66,1.57-2.64,2.03-.23.11-1.57-1.17-1.55-1.79.02-.84.84-1.67,1.65-3.11Z"/><path class="cls-2" d="m109.18,104.63c-.9-1.05-2.03-1.84-1.92-2.39.15-.78,1.3-2.01,1.87-1.93.99.13,1.86,1.12,2.79,1.75-.78.72-1.56,1.46-2.74,2.57Z"/><path class="cls-2" d="m119.2,56.99c-.91-1.05-1.82-1.71-2.06-2.56-.11-.38,1.32-1.74,1.72-1.61,1.05.34,1.92,1.24,2.86,1.92-.7.64-1.41,1.27-2.52,2.25Z"/><path class="cls-2" d="m87.82,53.73c.86,1.05,1.39,1.7,1.93,2.36-.89.57-1.73,1.35-2.71,1.61-.34.09-1.57-1.32-1.43-1.68.3-.78,1.21-1.32,2.21-2.29Z"/><path class="cls-2" d="m103.21,44.52c1.02.98,1.77,1.7,2.52,2.42-.7.52-1.49,1.54-2.08,1.44-.78-.14-1.56-1.07-2-1.85-.13-.24.84-1.1,1.56-2.01Z"/><path class="cls-2" d="m93.68,101.5c-.71.41-1.53,1.26-2.09,1.12-.88-.23-1.58-1.14-2.36-1.76.45-.42.95-1.25,1.34-1.2,1.06.13,2.07.63,3.1.99,0,.28.01.56.01.85Z"/><path class="cls-2" d="m116.26,78.78c1.06,1.01,1.73,1.66,2.41,2.31-.75.5-1.51,1.39-2.24,1.37-.6-.02-1.34-1.05-1.65-1.79-.12-.29.76-1,1.48-1.89Z"/><path class="cls-2" d="m80.23,92.16c-.24-.69-.87-1.57-.64-2.01.36-.7,1.25-1.4,2.01-1.53.5-.08,1.17.84,1.76,1.31-.66.55-1.31,1.1-1.97,1.65-.39.19-.77.38-1.16.58Z"/><path class="cls-2" d="m119.74,87.55c.76.88,1.67,1.66,1.56,1.85-.39.68-1.13,1.15-1.74,1.71-.39-.44-1.15-.93-1.1-1.3.09-.66.68-1.26,1.28-2.26Z"/><path class="cls-2" d="m395.28,87.31c-1.19-1.62-2.38-2.52-2.46-3.52-.15-1.71,1.62-2.14,2.82-1.9.87.17,2.14,1.43,2.12,2.17-.03.88-1.25,1.73-2.48,3.25Z"/><path class="cls-2" d="m419.34,76.87c-1.55,1.11-2.48,2.19-3.59,2.41-.65.13-1.57-1.12-2.37-1.75,1.07-.85,2.06-1.89,3.27-2.45.4-.17,1.37.89,2.69,1.79Z"/><path class="cls-2" d="m412.41,36.98c-1.06-1.46-1.71-2.35-2.36-3.25.8-.56,1.69-1.67,2.39-1.56,1.02.16,1.89,1.2,2.83,1.86-.78.8-1.56,1.61-2.86,2.95Z"/><path class="cls-2" d="m380.36,49.57c-1.02-1.38-2.07-2.19-1.96-2.78.13-.69,1.23-1.53,2-1.64.57-.08,1.88.98,1.83,1.4-.11.85-.93,1.6-1.87,3.02Z"/><path class="cls-2" d="m383.59,34.54c-1.03-1.04-1.67-1.69-2.31-2.33.66-.65,1.41-1.9,1.97-1.82.78.11,1.61,1.12,2.01,1.94.15.3-.85,1.16-1.67,2.21Z"/><path class="cls-2" d="m380.92,63.9c-.77.53-1.53,1.47-2.3,1.46-.57,0-1.34-1.16-1.58-1.94-.09-.3,1.03-1.35,1.63-1.38.73-.03,1.49.66,2.24,1.04,0,.28,0,.55,0,.82Z"/><path class="cls-2" d="m411.92,57.79c1.55.62,3.47-.88,4.09,1.43.09.33-.92,1.26-1.53,1.39-1.85.41-2.55-.67-2.56-2.82Z"/><path class="cls-2" d="m397.51,26.42c1.02.76,1.84,1.38,2.66,1.99-.63.45-1.4,1.39-1.87,1.26-.91-.25-1.66-1.1-2.48-1.7.48-.45.96-.89,1.69-1.55Z"/><path class="cls-2" d="m316.06,45.11c.02,1.27-.74,2.1-2.3,2.09-1.64,0-3.49-1.85-3.01-3.43.27-.9,1.59-1.86,2.59-2.07,1.43-.3,2.76,1.47,2.72,3.41Z"/><path class="cls-2" d="m334.45,86.79c-1.52,1.31-2.34,2.59-3.33,2.73-1.41.19-2.74-.59-2.6-2.53.12-1.67.84-2.89,2.59-2.55.97.19,1.78,1.21,3.34,2.35Z"/><path class="cls-2" d="m334.13,59.07c.6.77,1.69,1.57,1.79,2.48.17,1.43-.87,2.75-2.41,2.49-.99-.17-2.39-1.21-2.58-2.08-.36-1.73,1.26-2.24,3.2-2.89Z"/><path class="cls-2" d="m340.44,30.57c-.85.77-1.64,2.02-2.58,2.15-.67.09-2.01-1.2-2.23-2.08-.28-1.14.33-2.45,2.05-2.02.91.23,1.77.64,2.65.97.03.32.07.65.11.98Z"/><path class="cls-2" d="m315.15,78.24c.94,1.14,2,1.88,1.95,2.53-.06.77-1.08,1.47-1.68,2.2-.84-.78-1.69-1.55-2.53-2.33.62-.66,1.24-1.32,2.26-2.4Z"/><path class="cls-2" d="m334.01,48.18c-1.09-1.24-2.06-1.87-2.27-2.69-.29-1.17.49-1.91,1.84-1.82,1.28.09,2.57.34,2.44,1.89-.05.72-1,1.37-2.01,2.62Z"/><path class="cls-2" d="m307.33,26.23c-1.12.98-1.85,2.09-2.49,2.05-.69-.05-1.63-1.08-1.89-1.87-.57-1.73,1.21-1.59,2.06-1.8.49-.12,1.23.82,2.32,1.62Z"/><path class="cls-2" d="m231.69,82.18c1.58-.13,2.74.35,2.77,2.26.03,1.61-1.27,2.73-3.09,2.76-1.84.03-2.48-.93-2.48-2.64,0-1.92,1.09-2.43,2.8-2.38Z"/><path class="cls-2" d="m215.68,83.92c-.02,1.85-.65,2.99-2.1,2.63-1.02-.25-2.49-1.23-2.61-2.05-.2-1.36.92-2.4,2.57-2.37,1.5.02,2.16.79,2.14,1.79Z"/><path class="cls-2" d="m204.4,36.02c-.85.57-1.66,1.49-2.57,1.61-1.26.17-2.56-.76-2.13-2.09.28-.88,1.62-1.68,2.64-1.98.49-.14,1.35.94,2.04,1.47.01.33.01.66.02.99Z"/><path class="cls-2" d="m214.64,67.45c-1.26,1.16-1.95,2.17-2.88,2.48-.39.13-1.27-1.2-1.93-1.86.77-.74,1.45-1.67,2.36-2.12.36-.17,1.25.74,2.45,1.5Z"/><path class="cls-2" d="m209.98,49.16c.79.8,1.34,1.35,1.89,1.9-.7.52-1.4,1.43-2.09,1.43-.61,0-1.22-1.03-1.83-1.61.59-.5,1.17-.99,2.03-1.72Z"/><path class="cls-2" d="m157.03,86.11c2.24.27,3.43.81,3.52,2.6.07,1.38-.81,1.95-1.96,1.84-1.44-.13-3-.63-2.98-2.38,0-.77,1.04-1.54,1.42-2.06Z"/><path class="cls-2" d="m171.56,89.28c.72.6,1.44,1.21,2.17,1.81-.81.8-1.5,2-2.46,2.28-1.24.36-2.88-.01-2.97-1.77-.12-1.96,1.55-1.75,3.26-2.32Z"/><path class="cls-2" d="m182.59,65.89c.7.8,1.54,1.53,1.99,2.45.13.26-.86,1.46-1.44,1.56-.71.12-2.14-.4-2.19-.79-.13-.97.34-2.02.57-3.04.35-.06.71-.12,1.07-.18Z"/><path class="cls-2" d="m177.39,76.18c.89.95,1.42,1.51,1.96,2.08-.69.6-1.31,1.49-2.1,1.69-.45.11-1.7-.97-1.66-1.42.07-.7.95-1.31,1.8-2.35Z"/><path class="cls-2" d="m152.03,75.15c-1.39.83-2.13,1.61-2.84,1.59-.54-.02-1.39-1.02-1.49-1.67-.18-1.32.92-1.57,1.94-1.33.62.13,1.16.66,2.39,1.41Z"/><path class="cls-2" d="m153.46,60.17c-.84.32-1.68.84-2.53.86-.34,0-.86-1.02-1.02-1.65-.09-.35.48-1.25.57-1.22,1.02.29,2,.7,3,1.08-.01.31-.01.62-.02.93Z"/><path class="cls-2" d="m461.22,83.22c1.42-.95,2.25-1.49,3.07-2.04-1.03-.36-2.05-.99-3.1-1-.83-.01-2.25.68-2.37,1.14-.12.43,1.14.97,2.4,1.9Z"/><path class="cls-2" d="m476.08,79.83c-1.25.81-2.26,1.29-2.78,1.9-.13.15,1.48,1.07,1.98,1,1.31-.19,2.45-.73,3.66-1.14-.79-.48-1.58-.97-2.86-1.76Z"/><path class="cls-2" d="m449.76,73.61c1.91.88,3.5,1.74,5.56.66.44-.23.27-1.3-.25-1.51-1.98-.78-3.58-.17-5.31.85Z"/><path class="cls-2" d="m469.9,47.07c1.08-.71,1.72-1.13,2.35-1.55-.97-.39-1.87-.99-2.94-1.09-.55-.05-1.86.74-1.94,1.2-.05.34,1.28.76,2.53,1.44Z"/><path class="cls-2" d="m483.2,52.31c-1.49.52-2.7.94-3.9,1.36.7.25,1.39.71,2.09.71,1.84.03,2.73-.5,1.81-2.07Z"/><path class="cls-2" d="m450.48,49.06c1.27.58,1.95,1.06,2.8,1.19.36.05,1.1-.65,1.66-1-.73-.33-1.39-.77-2.22-.94-.4-.08-1.15.36-2.24.75Z"/><path class="cls-2" d="m471.26,62.53c-1.17.18-2.34.36-3.51.54.35.37.83,1.08,1.04,1.05,1.1-.13,2.12-.43,3.17-.68-.23-.3-.47-.61-.7-.91Z"/><path class="cls-2" d="m276.58,19.47c3.03,1.44,2.98,3.78,2.08,6.55-.58,1.8-.8,3.71-1.18,5.57-.94,3.22-1.99,6.41-2.79,9.66-.85,3.44-1.85,6.91-2.1,10.42-.25,3.42.33,6.9.63,10.35.13,1.54.5,3.05.71,4.59.28,2,1.19,2.97,3.44,2.01,3.96-1.69,8.03-3.1,12.07-4.59.46-.17.99-.15,1.74-.25,1.42,8.07,2.81,16,4.2,23.94.28,1.59-.26,2.32-1.98,2.7-8.92,1.98-17.81,4.1-26.68,6.26-2.42.59-3.34-.08-4.29-2.54-1.14-2.94-3.58-5.36-5.21-8.14-.71-1.21-1.03-2.75-1.14-4.17-.52-6.68-.81-13.37-1.36-20.05-.49-5.91-1.39-11.79-1.79-17.71-.24-3.6-.09-7.17,1.23-10.75,1.98-5.33,3.38-10.88,4.9-16.38.43-1.54.95-1.77,2.48-1.34,4.98,1.39,10.03,2.59,15.04,3.87Zm-3.4,52.2c-.42-1.34-.88-2.36-1.05-3.43-.51-3.22-.91-6.46-1.33-9.7-.33-2.57-.99-5.17-.82-7.71.19-2.86,1.04-5.69,1.79-8.48,1.63-6.08,3.42-12.13,5.04-18.21.18-.68-.1-2.11-.48-2.23-4.24-1.36-8.51-2.62-12.83-3.71-1.38-.35-2.5.08-2.61,2.05-.09,1.66-.74,3.32-1.34,4.91-2.92,7.75-5.01,15.45-3.67,24.02,1.37,8.78,1.76,17.73,2.22,26.62.2,3.85.33,7.51,2.65,10.81,1.35,1.92,2.4,4.06,3.59,6.1,1.73,2.96,1.71,2.85,4.89,1.96,7.15-2.01,14.32-3.93,21.49-5.84,1.42-.38,2.06-.85,1.74-2.6-1.09-5.99-1.97-12.01-2.88-18.03-.25-1.66-1.4-1.35-2.35-1.07-2.07.6-4.09,1.38-6.14,2.05-2.58.84-5.17,1.63-7.91,2.49Z"/><path class="cls-2" d="m432.62,20.7c-.83-.97-1.37-1.61-1.92-2.25.59-.4,1.29-1.22,1.74-1.1.77.21,1.37,1.01,2.05,1.56-.51.49-1.02.98-1.87,1.79Z"/><path class="cls-1" d="m289.48,168.54c2.84-.02,3.91.87,3.98,3.28.07,2.32-1.96,4.34-4.4,4.39-2.47.05-4.04-1.36-4.08-3.67-.06-2.93,1.12-3.98,4.5-4Z"/><path class="cls-1" d="m243.49,176.18c-1.14-.13-2.4-.52-2.34-2.43.05-1.48,1.68-2.96,3.3-2.92,1.6.04,2.46.95,2.59,2.48.15,1.75-1.1,2.84-3.55,2.87Z"/><path class="cls-1" d="m273.18,71.67c2.74-.86,5.33-1.65,7.91-2.49,2.05-.67,4.07-1.45,6.14-2.05.95-.27,2.1-.59,2.35,1.07.91,6.02,1.79,12.04,2.88,18.03.32,1.75-.32,2.22-1.74,2.6-7.17,1.91-14.35,3.82-21.49,5.84-3.18.9-3.15,1.01-4.89-1.96-1.19-2.04-2.24-4.18-3.59-6.1-2.32-3.3-2.45-6.96-2.65-10.81-.47-8.89-.85-17.84-2.22-26.62-1.34-8.57.75-16.27,3.67-24.02.6-1.59,1.25-3.25,1.34-4.91.11-1.98,1.24-2.4,2.61-2.05,4.31,1.09,8.59,2.34,12.83,3.71.38.12.66,1.55.48,2.23-1.62,6.09-3.4,12.13-5.04,18.21-.75,2.79-1.6,5.63-1.79,8.48-.17,2.54.49,5.14.82,7.71.42,3.24.82,6.47,1.33,9.7.17,1.07.63,2.09,1.05,3.43Zm11.5,8.8c-.01-1.62-1.38-3.18-2.78-3.17-1.84.02-3.25,1.16-3.21,2.59.05,1.86,1.67,3.73,3.25,3.5,1.56-.23,2.73-1.1,2.74-2.92Zm-17.04-55.6c-1.2,1.26-2.48,2.02-2.49,2.8-.01.84,1.07,2.26,1.87,2.41,1.63.3,2.28-1.22,2.29-2.58,0-.68-.82-1.35-1.67-2.63Zm-3.79,35.24c-.96,1.48-1.92,2.31-1.89,3.11.03.77,1.08,1.5,1.68,2.25.73-.81,1.76-1.53,2.06-2.48.16-.53-.89-1.45-1.85-2.88Zm2.44,25.22c.94-1.2,1.83-1.92,2.03-2.79.09-.42-1.1-1.56-1.77-1.62-1.19-.1-2.49.54-2.3,2.02.09.7,1.05,1.28,2.04,2.39Zm-2.9-42.01c-1.12,1.22-2.24,1.89-2.28,2.63-.04.7,1.06,1.45,1.65,2.18.61-.62,1.57-1.16,1.72-1.88.16-.7-.53-1.56-1.09-2.93Z"/><path class="cls-2" d="m284.68,80.47c-.01,1.82-1.18,2.69-2.75,2.92-1.58.24-3.2-1.64-3.25-3.5-.04-1.44,1.37-2.57,3.21-2.59,1.41-.01,2.78,1.55,2.79,3.17Z"/><path class="cls-2" d="m267.64,24.87c.85,1.28,1.67,1.95,1.66,2.62-.01,1.37-.65,2.89-2.29,2.58-.79-.15-1.87-1.57-1.87-2.41,0-.76,1.3-1.52,2.5-2.79Z"/><path class="cls-2" d="m263.85,60.11c.96,1.43,2.01,2.34,1.85,2.88-.29.95-1.33,1.66-2.06,2.48-.6-.75-1.65-1.48-1.68-2.25-.03-.8.93-1.63,1.89-3.11Z"/><path class="cls-2" d="m266.29,85.33c-.99-1.11-1.95-1.69-2.04-2.39-.19-1.48,1.11-2.12,2.3-2.02.67.06,1.86,1.2,1.77,1.62-.2.87-1.1,1.59-2.03,2.79Z"/><path class="cls-2" d="m263.39,43.32c.56,1.37,1.25,2.24,1.1,2.92-.16.72-1.12,1.26-1.72,1.88-.6-.73-1.69-1.48-1.65-2.18.03-.73,1.15-1.41,2.27-2.62Z"/></svg>